<svg xmlns="http://www.w3.org/2000/svg" width="28.585" height="24.481" viewBox="0 0 28.585 24.481">
  <g id="Active_sign" data-name="Active sign" transform="translate(-1328.819 -77.279)">
    <g id="svgexport-10" transform="matrix(0.819, 0.574, -0.574, 0.819, 1347.781, 85.399)">
      <g id="Group_3623" data-name="Group 3623" transform="translate(0 0)">
        <g id="Group_3622" data-name="Group 3622">
          <path id="Path_15607" data-name="Path 15607" d="M11.66.088S6.337-.757,2.79,2.79C-.145,5.725-.073,9.876.039,11.221L5.63,5.63l.487.487L.526,11.708c1.344.112,5.5.184,8.431-2.751C12.5,5.411,11.66.088,11.66.088Z" fill="#95d043"/>
        </g>
      </g>
    </g>
    <g id="svgexport-10-2" data-name="svgexport-10" transform="matrix(0.819, 0.574, -0.574, 0.819, 1335.557, 77.279)">
      <g id="Group_3623-2" data-name="Group 3623" transform="translate(0 0)">
        <g id="Group_3622-2" data-name="Group 3622">
          <path id="Path_15607-2" data-name="Path 15607" d="M.088.088s5.323-.845,8.869,2.7c2.935,2.935,2.863,7.086,2.751,8.431L6.117,5.63l-.487.487,5.591,5.591c-1.344.112-5.5.184-8.431-2.751C-.757,5.411.088.088.088.088Z" fill="#95d043"/>
        </g>
      </g>
    </g>
  </g>
</svg>
