<svg xmlns="http://www.w3.org/2000/svg" width="30.797" height="28.657" viewBox="0 0 30.797 28.657">
  <path id="add_4_" data-name="add (4)" d="M30.8,3.613V18.784H28.389V3.613a1.206,1.206,0,0,0-1.2-1.2H3.612a1.206,1.206,0,0,0-1.2,1.2v9.112L7.39,5.444l4,4.995,1.811-2.6,7.727,10.045v.9H18.58l-5.286-6.872L6.527,21.639,4.55,20.264l5.4-7.764L7.541,9.488l-5.133,7.5v5.889a1.205,1.205,0,0,0,1.2,1.2H15.926V26.49H3.612A3.616,3.616,0,0,1,0,22.878V3.613A3.616,3.616,0,0,1,3.612,0H27.184A3.616,3.616,0,0,1,30.8,3.613Zm-8.067,7.947a3.612,3.612,0,1,1,3.612-3.612A3.616,3.616,0,0,1,22.729,11.559Zm1.2-3.612a1.2,1.2,0,1,0-1.2,1.2A1.205,1.205,0,0,0,23.934,7.947Zm1.806,8.188H23.331v5.057H18.274V23.6h5.057v5.057H25.74V23.6H30.8V21.192H25.74Zm0,0" transform="translate(0 0)" fill="#ffbc56"/>
</svg>
