<svg xmlns="http://www.w3.org/2000/svg" width="26.614" height="26.611" viewBox="0 0 26.614 26.611">
  <g id="agricultural_services" data-name="agricultural services" transform="translate(0 -0.021)">
    <g id="Group_1634" data-name="Group 1634" transform="translate(0 0.021)">
      <path id="Path_3741" data-name="Path 3741" d="M361.872.409a.78.78,0,0,0-1.066-.281l-2.245,1.308a.78.78,0,0,0-.448.706V4.688h-.4a.465.465,0,0,0-.465.465V9.4a.465.465,0,0,0,.465.465h.4v9.063a1.457,1.457,0,0,1-1.455,1.455h-1.124v-.067a.78.78,0,0,0-.78-.78h-1v3.3h1a.78.78,0,0,0,.78-.78v-.111h1.124a3.018,3.018,0,0,0,3.015-3.015V9.864h.2a.465.465,0,0,0,.465-.465V8l.853-1.551a.465.465,0,0,0,.058-.224V5.153a.465.465,0,0,0-.465-.465h-1.113v-2.1l1.919-1.118a.78.78,0,0,0,.281-1.066Z" transform="translate(-335.365 -0.021)" fill="#bfbfbf"/>
      <g id="Group_1633" data-name="Group 1633" transform="translate(0 0)">
        <g id="Group_1632" data-name="Group 1632">
          <path id="Path_3742" data-name="Path 3742" d="M147.139,232.677a.784.784,0,0,0-.783.783v3.009a.783.783,0,0,0,1.566,0V233.46A.784.784,0,0,0,147.139,232.677Z" transform="translate(-138.748 -220.584)" fill="#bfbfbf"/>
          <path id="Path_3743" data-name="Path 3743" d="M12.146,3.422H10.059V1.58h1.463a.78.78,0,0,0,0-1.559H5.306a.78.78,0,0,0,0,1.559H6.769V3.422H4.683A4.683,4.683,0,0,0,0,8.1v14.73H16.829V8.1a4.683,4.683,0,0,0-4.683-4.683Zm.292,9.173a.78.78,0,0,1-.78.78h-.926v2.066h.926a.78.78,0,0,1,.78.78v1.261a.78.78,0,1,1-1.559,0V17H10.46a2.341,2.341,0,0,1-4.139,0H5.9v.481a.78.78,0,1,1-1.559,0V16.221a.78.78,0,0,1,.78-.78h.926V13.375H5.123a.78.78,0,0,1-.78-.78V11.335a.78.78,0,0,1,1.559,0v.481h.412a2.341,2.341,0,0,1,4.153,0h.412v-.481a.78.78,0,0,1,1.559,0Z" transform="translate(0 -0.021)" fill="#bfbfbf"/>
        </g>
        <path id="Path_3744" data-name="Path 3744" d="M16.091,471.165H.822a.78.78,0,0,1-.78-.78v-1.458H16.871v1.458A.78.78,0,0,1,16.091,471.165Z" transform="translate(-0.04 -444.553)" fill="#bfbfbf"/>
      </g>
    </g>
  </g>
</svg>
