<svg id="svgexport-9_8_" data-name="svgexport-9 (8)" xmlns="http://www.w3.org/2000/svg" width="94.62" height="94.612" viewBox="0 0 94.62 94.612">
  <g id="Group_1634" data-name="Group 1634" transform="translate(0 0)">
    <path id="Path_3741" data-name="Path 3741" d="M382.62,1.4a2.772,2.772,0,0,0-3.791-1l-7.98,4.649a2.773,2.773,0,0,0-1.594,2.51v9.055h-1.417a1.654,1.654,0,0,0-1.654,1.654V33.361a1.654,1.654,0,0,0,1.654,1.654h1.417v32.22a5.18,5.18,0,0,1-5.174,5.174h-3.995v-.24a2.772,2.772,0,0,0-2.772-2.772h-3.561V81.121h3.561a2.772,2.772,0,0,0,2.772-2.772v-.395h3.995A10.73,10.73,0,0,0,374.8,67.235V35.015h.718a1.654,1.654,0,0,0,1.654-1.654V28.389l3.034-5.516a1.653,1.653,0,0,0,.2-.8V18.266a1.654,1.654,0,0,0-1.654-1.654H374.8V9.163l6.821-3.973a2.772,2.772,0,0,0,1-3.791Z" transform="translate(-288.378 -0.021)" fill="#ffbc56"/>
    <g id="Group_1633" data-name="Group 1633" transform="translate(0 0)">
      <g id="Group_1632" data-name="Group 1632">
        <path id="Path_3742" data-name="Path 3742" d="M149.139,232.677a2.786,2.786,0,0,0-2.783,2.783v10.7a2.783,2.783,0,0,0,5.566,0v-10.7a2.786,2.786,0,0,0-2.783-2.783Z" transform="translate(-119.309 -189.681)" fill="#ffbc56"/>
        <path id="Path_3743" data-name="Path 3743" d="M43.182,12.112H35.764V5.565h5.2a2.772,2.772,0,0,0,0-5.544h-22.1a2.772,2.772,0,1,0,0,5.544h5.2v6.547H16.649A16.649,16.649,0,0,0,0,28.761V81.133H59.831V28.761A16.649,16.649,0,0,0,43.182,12.112ZM44.22,44.726A2.772,2.772,0,0,1,41.448,47.5H38.158v7.346h3.291a2.772,2.772,0,0,1,2.772,2.772V62.1a2.772,2.772,0,0,1-5.544,0v-1.71H37.189a8.322,8.322,0,0,1-14.717,0H20.985V62.1a2.772,2.772,0,0,1-5.544,0V57.616a2.772,2.772,0,0,1,2.772-2.772H21.5V47.5H18.213a2.772,2.772,0,0,1-2.772-2.772V40.245a2.772,2.772,0,0,1,5.544,0v1.71h1.463a8.321,8.321,0,0,1,14.765,0h1.463v-1.71a2.772,2.772,0,0,1,5.544,0Z" transform="translate(0 -0.021)" fill="#ffbc56"/>
      </g>
      <path id="Path_3744" data-name="Path 3744" d="M57.1,476.883H2.814a2.772,2.772,0,0,1-2.772-2.772v-5.184H59.873v5.184A2.772,2.772,0,0,1,57.1,476.883Z" transform="translate(-0.034 -382.271)" fill="#ffbc56"/>
    </g>
  </g>
</svg>
