<svg id="svgexport-6_-_2021-12-22T154006.676" data-name="svgexport-6 - 2021-12-22T154006.676" xmlns="http://www.w3.org/2000/svg" width="118.227" height="121.499" viewBox="0 0 118.227 121.499">
  <g id="Group_1631" data-name="Group 1631" transform="translate(0)">
    <g id="Group_1630" data-name="Group 1630">
      <path id="Path_3708" data-name="Path 3708" d="M46.4,30.025c-2.985,0-5.4,7.741-5.4,10.723a5.4,5.4,0,1,0,10.806,0C51.8,37.769,49.383,30.025,46.4,30.025Z" transform="translate(66.426 49.849)" fill="#98cf42"/>
      <path id="Path_3709" data-name="Path 3709" d="M42.812,39.611c-2.985,0-5.4,7.736-5.4,10.721a5.4,5.4,0,1,0,10.806,0C48.215,47.347,45.8,39.611,42.812,39.611Z" transform="translate(60.472 65.764)" fill="#98cf42"/>
      <path id="Path_3710" data-name="Path 3710" d="M96.445,64.226A16.68,16.68,0,0,0,109.8,73.29a3.106,3.106,0,0,0,3.355-3.549l-3.82-26.108a3.113,3.113,0,0,0-4.23-2.442A16.681,16.681,0,0,0,94.9,53.7L65.2,58.047,79.848,39.481a6.555,6.555,0,0,0-.729-8.9L54.4,8.045a6.556,6.556,0,0,0-8.93.1l-.543.513a24.965,24.965,0,0,0-2-2.051A25.285,25.285,0,0,0,8.348,43.49a6.5,6.5,0,0,0,.314,9.34L38.742,80.254a6.549,6.549,0,0,0,9.561-.782L55.616,70.2ZM13.1,13.628a17.193,17.193,0,0,1,26.038.54l-25.03,23.8A17.332,17.332,0,0,1,13.1,13.628Z" transform="translate(-0.615)" fill="#98cf42"/>
    </g>
  </g>
</svg>
