<svg id="svgexport-10_38_" data-name="svgexport-10 (38)" xmlns="http://www.w3.org/2000/svg" width="118.227" height="55.419" viewBox="0 0 118.227 55.419">
  <path id="Path_3705" data-name="Path 3705" d="M118.227,198.318a10.372,10.372,0,0,0-7.049-9.791c.019-.208.122-.388.122-.6a6.927,6.927,0,0,0-13.855,0c0,.213.1.392.122.6a10.322,10.322,0,0,0,3.342,20.182v6.927H62.577v-6.927a10.363,10.363,0,0,0,3.342-20.182c.019-.208.122-.388.122-.6a6.927,6.927,0,0,0-13.855,0c0,.213.1.392.122.6a10.363,10.363,0,0,0,3.342,20.182v6.927h-38.1v-6.927a10.363,10.363,0,0,0,3.342-20.182c.019-.208.122-.388.122-.6A6.936,6.936,0,0,0,14.086,181a7.138,7.138,0,0,0-7.158,6.927c0,.213.1.392.122.6A10.372,10.372,0,0,0,0,198.318a10.6,10.6,0,0,0,10.622,10.391v6.927H3.464a3.464,3.464,0,1,0,0,6.927h111.3a3.464,3.464,0,1,0,0-6.927h-6.927v-6.927A10.4,10.4,0,0,0,118.227,198.318Z" transform="translate(0 -167.145)" fill="#2e5d32"/>
  <path id="Path_3706" data-name="Path 3706" d="M106.09,132.7a13.815,13.815,0,0,1,2.915,5.287,17.236,17.236,0,0,1,7.026,10.719h4.321a17.237,17.237,0,0,1,7.026-10.719,13.818,13.818,0,0,1,2.915-5.287,10.439,10.439,0,0,0-5.3-4.175c.019-.208.122-.388.122-.6a6.927,6.927,0,1,0-13.855,0c0,.213.1.392.122.6A10.436,10.436,0,0,0,106.09,132.7Z" transform="translate(-81.593 -121)" fill="#2e5d32"/>
  <path id="Path_3707" data-name="Path 3707" d="M301.09,132.7a13.814,13.814,0,0,1,2.915,5.287,17.236,17.236,0,0,1,7.026,10.719h4.321a17.236,17.236,0,0,1,7.026-10.719,13.82,13.82,0,0,1,2.915-5.287,10.439,10.439,0,0,0-5.3-4.175c.019-.208.122-.388.122-.6a6.927,6.927,0,1,0-13.855,0c0,.213.1.392.122.6A10.436,10.436,0,0,0,301.09,132.7Z" transform="translate(-231.565 -121)" fill="#2e5d32"/>
</svg>
