<svg xmlns="http://www.w3.org/2000/svg" width="24.238" height="30.981" viewBox="0 0 24.238 30.981">
  <g id="svgexport-6_-_2021-12-23T161813.392" data-name="svgexport-6 - 2021-12-23T161813.392" transform="translate(-55.678 1)">
    <g id="Group_1673" data-name="Group 1673" transform="translate(55.678 -1)">
      <path id="Path_3750" data-name="Path 3750" d="M77.548,17.73a6.557,6.557,0,0,0-2.231-.406,7.064,7.064,0,0,0-2.031.346,8.885,8.885,0,0,0-1.72.726,11.171,11.171,0,0,0-1.34.907q-.648.51-.856.709t-.311.32a25.613,25.613,0,0,0,1.262-4.893l.294.052a6.88,6.88,0,0,0,.8.078q.51.026,1.167.017a7.058,7.058,0,0,0,1.383-.164,11.829,11.829,0,0,0,1.461-.415,4.954,4.954,0,0,0,1.409-.787,6.428,6.428,0,0,0,1.2-1.236,5.925,5.925,0,0,0,.864-1.807,9.059,9.059,0,0,0,.372-2.446,7.493,7.493,0,0,0-2.291-.415,5.962,5.962,0,0,0-1.936.251,6.575,6.575,0,0,0-1.582.769,8.279,8.279,0,0,0-1.228.959,8.6,8.6,0,0,0-.872,1q-.406.545-.527.743a2.742,2.742,0,0,0-.173.32q.018-.449.017-1.236t-.017-.873l.121-.259a4.844,4.844,0,0,0,.294-.726q.155-.467.328-1.072a6.532,6.532,0,0,0,.225-1.323,11.389,11.389,0,0,0,.009-1.478,4.863,4.863,0,0,0-.354-1.539,6.411,6.411,0,0,0-.83-1.469A5.905,5.905,0,0,0,69,1.063,9.446,9.446,0,0,0,66.8,0a7.067,7.067,0,0,0-1.21,2.394,5.754,5.754,0,0,0-.208,2.2,6.505,6.505,0,0,0,.57,1.945,8.841,8.841,0,0,0,.934,1.608,10.924,10.924,0,0,0,1.1,1.236,10.707,10.707,0,0,0,.847.769l.372.277q0,1.262-.208,3.371l-.069-.277q-.087-.259-.277-.683t-.475-.968a6.623,6.623,0,0,0-.726-1.089,11.744,11.744,0,0,0-.968-1.055A4.742,4.742,0,0,0,65.2,8.861a6.609,6.609,0,0,0-1.591-.519,6.049,6.049,0,0,0-1.945-.017,9.705,9.705,0,0,0-2.308.631,7.869,7.869,0,0,0,.493,2.2,5.591,5.591,0,0,0,.942,1.634,6.111,6.111,0,0,0,1.3,1.124,6.894,6.894,0,0,0,1.452.735,9.688,9.688,0,0,0,1.53.4,10.912,10.912,0,0,0,1.409.173q.588.026,1.2.009t.8-.043l.312-.043a23.424,23.424,0,0,1-1.366,5.031,9.807,9.807,0,0,0-.977-1.418,7.43,7.43,0,0,0-1.53-1.331,6.811,6.811,0,0,0-2.153-.977,8.4,8.4,0,0,0-2.9-.13,13.229,13.229,0,0,0-3.7.986,13.968,13.968,0,0,0,1.288,2.524,8.271,8.271,0,0,0,1.461,1.729,6.552,6.552,0,0,0,1.591,1.02,6.144,6.144,0,0,0,1.608.493,6.806,6.806,0,0,0,1.573.043,9.231,9.231,0,0,0,1.435-.225,10.361,10.361,0,0,0,1.245-.4,14.726,14.726,0,0,1-4.348,5.091,9.521,9.521,0,0,1-5.576,1.859.766.766,0,0,0-.553.216.723.723,0,0,0-.225.544.768.768,0,0,0,.778.778A10.984,10.984,0,0,0,63.1,28.691a16.96,16.96,0,0,0,5-6.215l.294.173a5.717,5.717,0,0,0,.8.389q.518.216,1.2.475a7.17,7.17,0,0,0,1.5.38,14.193,14.193,0,0,0,1.668.147,5.382,5.382,0,0,0,1.755-.251,6.81,6.81,0,0,0,1.711-.8,6.4,6.4,0,0,0,1.573-1.53,10.159,10.159,0,0,0,1.314-2.385A7.921,7.921,0,0,0,77.548,17.73Z" transform="translate(-55.678)" fill="#95d043"/>
    </g>
  </g>
</svg>
