<svg xmlns="http://www.w3.org/2000/svg" width="467.823" height="471.83" viewBox="0 0 467.823 471.83">
  <g id="svgexport-10_2_" data-name="svgexport-10 (2)" transform="translate(254.394) rotate(43)" opacity="0.11">
    <g id="Group_3729" data-name="Group 3729">
      <path id="Path_15611" data-name="Path 15611" d="M84.2,159.548q14.787,5.093,26.856,4.888a85.047,85.047,0,0,0,24.457-4.162,106.965,106.965,0,0,0,20.706-8.742,134.473,134.473,0,0,0,16.13-10.926q7.807-6.141,10.3-8.535t3.747-3.852A308.384,308.384,0,0,0,171.2,187.128l-3.54-.623a82.843,82.843,0,0,0-9.678-.938q-6.142-.314-14.051-.209a84.984,84.984,0,0,0-16.655,1.978,142.434,142.434,0,0,0-17.59,5,59.641,59.641,0,0,0-16.961,9.47,77.387,77.387,0,0,0-14.471,14.882q-6.347,8.536-10.4,21.752a109.071,109.071,0,0,0-4.476,29.452,90.218,90.218,0,0,0,27.58,4.995q13.427.211,23.313-3.018a79.166,79.166,0,0,0,19.047-9.261,99.685,99.685,0,0,0,14.78-11.551,103.523,103.523,0,0,0,10.5-12.072q4.892-6.557,6.347-8.949a33,33,0,0,0,2.083-3.85q-.213,5.411-.209,14.882t.209,10.51l-1.457,3.123a58.327,58.327,0,0,0-3.543,8.742q-1.871,5.621-3.955,12.9a78.647,78.647,0,0,0-2.7,15.926,137.144,137.144,0,0,0-.1,17.8,58.548,58.548,0,0,0,4.266,18.526,77.189,77.189,0,0,0,9.99,17.692q6.242,8.329,17.59,15.926a113.73,113.73,0,0,0,26.543,12.8q10.616-14.156,14.57-28.83t2.5-26.435a78.32,78.32,0,0,0-6.867-23.418,106.452,106.452,0,0,0-11.239-19.358A131.528,131.528,0,0,0,199.4,260.088a128.937,128.937,0,0,0-10.2-9.261c-1.873-1.39-3.36-2.5-4.476-3.33q0-15.195,2.5-40.589l.828,3.33q1.044,3.122,3.333,8.221t5.724,11.655a79.737,79.737,0,0,0,8.741,13.115,141.382,141.382,0,0,0,11.655,12.7,57.093,57.093,0,0,0,15.3,10.407,79.568,79.568,0,0,0,19.152,6.244,72.834,72.834,0,0,0,23.418.209,116.847,116.847,0,0,0,27.786-7.6,94.737,94.737,0,0,0-5.932-26.539,67.317,67.317,0,0,0-11.344-19.67,73.583,73.583,0,0,0-15.612-13.528,83,83,0,0,0-17.485-8.847,116.644,116.644,0,0,0-18.421-4.788,131.372,131.372,0,0,0-16.965-2.082q-7.079-.314-14.466-.1t-9.681.521c-1.53.209-2.777.381-3.75.521A282.008,282.008,0,0,1,205.96,130.1a118.072,118.072,0,0,0,11.763,17.073q6.557,7.9,18.421,16.023a82,82,0,0,0,25.917,11.761q14.053,3.637,34.866,1.562t44.544-11.871a168.193,168.193,0,0,0-15.508-30.391q-8.64-13.106-17.589-20.816a78.889,78.889,0,0,0-19.152-12.283,73.97,73.97,0,0,0-19.358-5.931,81.94,81.94,0,0,0-18.942-.519,111.139,111.139,0,0,0-17.277,2.707,124.726,124.726,0,0,0-14.986,4.79q21.234-39.135,52.352-61.3t67.129-22.38a9.227,9.227,0,0,0,6.661-2.6,8.707,8.707,0,0,0,2.706-6.554A9.057,9.057,0,0,0,344.8,2.707,9.061,9.061,0,0,0,338.14,0q-43.292.212-80.033,27.579t-60.26,74.83l-3.54-2.079a68.829,68.829,0,0,0-9.576-4.681q-6.242-2.605-14.466-5.724a86.328,86.328,0,0,0-18-4.578,170.9,170.9,0,0,0-20.087-1.772,64.8,64.8,0,0,0-21.13,3.022,81.99,81.99,0,0,0-20.6,9.681Q80.661,102.623,71.5,114.7a122.3,122.3,0,0,0-15.823,28.719A95.363,95.363,0,0,0,84.2,159.548Z" transform="translate(-55.678 0)" fill="#95d043"/>
    </g>
  </g>
</svg>
