<svg xmlns="http://www.w3.org/2000/svg" width="20.82" height="26.611" viewBox="0 0 20.82 26.611">
  <g id="plants" transform="translate(-55.678)">
    <g id="Group_1673" data-name="Group 1673" transform="translate(55.678)">
      <path id="Path_3750" data-name="Path 3750" d="M74.463,15.229a5.632,5.632,0,0,0-1.916-.349,6.067,6.067,0,0,0-1.745.3,7.632,7.632,0,0,0-1.477.624,9.6,9.6,0,0,0-1.151.779q-.557.438-.735.609t-.267.275a22,22,0,0,0,1.084-4.2l.253.044a5.91,5.91,0,0,0,.69.067q.438.022,1,.015a6.063,6.063,0,0,0,1.188-.141,10.161,10.161,0,0,0,1.255-.356,4.255,4.255,0,0,0,1.21-.676,5.522,5.522,0,0,0,1.032-1.062A5.09,5.09,0,0,0,75.629,9.6a7.782,7.782,0,0,0,.319-2.1,6.436,6.436,0,0,0-1.968-.356,5.121,5.121,0,0,0-1.663.215,5.648,5.648,0,0,0-1.359.661,7.114,7.114,0,0,0-1.054.824,7.385,7.385,0,0,0-.749.861q-.349.468-.453.638a2.355,2.355,0,0,0-.149.275q.015-.386.015-1.062t-.015-.75l.1-.223a4.159,4.159,0,0,0,.253-.624q.133-.4.282-.921A5.611,5.611,0,0,0,69.385,5.9a9.786,9.786,0,0,0,.007-1.27,4.177,4.177,0,0,0-.3-1.322,5.507,5.507,0,0,0-.713-1.262A5.073,5.073,0,0,0,67.121.913,8.114,8.114,0,0,0,65.227,0a6.07,6.07,0,0,0-1.039,2.057,4.942,4.942,0,0,0-.178,1.886,5.587,5.587,0,0,0,.49,1.671,7.6,7.6,0,0,0,.8,1.381,9.384,9.384,0,0,0,.943,1.062,9.2,9.2,0,0,0,.728.661l.319.238q0,1.084-.179,2.9l-.059-.238q-.074-.223-.238-.586t-.408-.831a5.69,5.69,0,0,0-.624-.936,10.088,10.088,0,0,0-.831-.906,4.073,4.073,0,0,0-1.091-.742,5.676,5.676,0,0,0-1.366-.445,5.2,5.2,0,0,0-1.671-.015,8.336,8.336,0,0,0-1.982.542,6.758,6.758,0,0,0,.423,1.893,4.8,4.8,0,0,0,.809,1.4,5.25,5.25,0,0,0,1.114.965,5.922,5.922,0,0,0,1.247.631,8.322,8.322,0,0,0,1.314.342,9.373,9.373,0,0,0,1.21.149q.505.022,1.032.007t.691-.037l.268-.037a20.118,20.118,0,0,1-1.173,4.321,8.424,8.424,0,0,0-.839-1.218,6.383,6.383,0,0,0-1.314-1.143,5.85,5.85,0,0,0-1.849-.839,7.216,7.216,0,0,0-2.487-.111,11.363,11.363,0,0,0-3.178.847,12,12,0,0,0,1.106,2.168,7.1,7.1,0,0,0,1.255,1.485,5.628,5.628,0,0,0,1.366.876,5.277,5.277,0,0,0,1.381.423,5.846,5.846,0,0,0,1.351.037,7.928,7.928,0,0,0,1.233-.193,8.9,8.9,0,0,0,1.069-.342,12.649,12.649,0,0,1-3.735,4.373,8.178,8.178,0,0,1-4.789,1.6.658.658,0,0,0-.475.186.621.621,0,0,0-.193.468.659.659,0,0,0,.668.668,9.435,9.435,0,0,0,5.71-1.968,14.568,14.568,0,0,0,4.3-5.339l.253.148a4.909,4.909,0,0,0,.683.334q.445.186,1.032.408a6.158,6.158,0,0,0,1.284.327,12.191,12.191,0,0,0,1.433.126,4.623,4.623,0,0,0,1.507-.216,5.85,5.85,0,0,0,1.47-.691,5.5,5.5,0,0,0,1.351-1.314A8.725,8.725,0,0,0,76.5,16.379,6.8,6.8,0,0,0,74.463,15.229Z" transform="translate(-55.678)" fill="#2e5d32"/>
    </g>
  </g>
</svg>
