<svg xmlns="http://www.w3.org/2000/svg" width="451.067" height="479.396" viewBox="0 0 451.067 479.396">
  <g id="svgexport-10_2_" data-name="svgexport-10 (2)" transform="translate(451.067 326.1) rotate(149)" opacity="0.11">
    <g id="Group_3729" data-name="Group 3729" transform="translate(0 0)">
      <path id="Path_15611" data-name="Path 15611" d="M29.085,217.715q15.081-5.194,27.391-4.985a86.74,86.74,0,0,1,24.944,4.244,109.1,109.1,0,0,1,21.118,8.916,137.155,137.155,0,0,1,16.451,11.143q7.963,6.263,10.51,8.705t3.822,3.928a314.524,314.524,0,0,1-15.494-60.082l-3.611.636a84.49,84.49,0,0,1-9.87.957q-6.264.32-14.331.213a86.676,86.676,0,0,1-16.986-2.017,145.266,145.266,0,0,1-17.94-5.1,60.829,60.829,0,0,1-17.3-9.658A78.927,78.927,0,0,1,23.03,159.44q-6.474-8.705-10.612-22.186a111.242,111.242,0,0,1-4.566-30.039,92.014,92.014,0,0,1,28.129-5.094q13.695-.215,23.778,3.078a80.743,80.743,0,0,1,19.426,9.446,101.673,101.673,0,0,1,15.074,11.781,105.583,105.583,0,0,1,10.713,12.312q4.989,6.688,6.474,9.128a33.657,33.657,0,0,1,2.124,3.926q-.217-5.519-.213-15.179t.213-10.72l-1.486-3.185a59.492,59.492,0,0,1-3.613-8.916q-1.908-5.733-4.034-13.161a80.214,80.214,0,0,1-2.758-16.243,139.878,139.878,0,0,1-.107-18.151,59.714,59.714,0,0,1,4.351-18.895A78.725,78.725,0,0,1,116.112,29.3q6.367-8.495,17.94-16.243A115.994,115.994,0,0,1,161.123,0q10.827,14.437,14.86,29.4t2.548,26.961a79.88,79.88,0,0,1-7,23.885,108.571,108.571,0,0,1-11.463,19.744,134.145,134.145,0,0,1-13.479,15.18,131.5,131.5,0,0,1-10.4,9.446c-1.91,1.417-3.427,2.547-4.565,3.4q0,15.5,2.553,41.4l.845-3.4q1.065-3.184,3.4-8.385t5.838-11.887a81.327,81.327,0,0,1,8.915-13.376,144.2,144.2,0,0,1,11.887-12.95,58.23,58.23,0,0,1,15.6-10.614,81.154,81.154,0,0,1,19.533-6.368,74.284,74.284,0,0,1,23.885-.213,119.177,119.177,0,0,1,28.34,7.75,96.624,96.624,0,0,1-6.05,27.067A68.658,68.658,0,0,1,234.8,157.1a75.047,75.047,0,0,1-15.922,13.8,84.648,84.648,0,0,1-17.833,9.023,118.965,118.965,0,0,1-18.787,4.883,133.985,133.985,0,0,1-17.3,2.124q-7.22.32-14.754.107t-9.873-.531c-1.56-.213-2.832-.389-3.825-.532a287.622,287.622,0,0,0,16.776,61.777,120.425,120.425,0,0,1,12-17.413q6.688-8.062,18.787-16.343a83.636,83.636,0,0,1,26.433-12q14.333-3.71,35.561-1.594t45.431,12.108a171.544,171.544,0,0,1-15.817,31q-8.812,13.367-17.939,21.231a80.459,80.459,0,0,1-19.533,12.527,75.445,75.445,0,0,1-19.743,6.049,83.574,83.574,0,0,1-19.319.529,113.345,113.345,0,0,1-17.621-2.761,127.207,127.207,0,0,1-15.284-4.885q21.657,39.914,53.394,62.519t68.466,22.826a9.411,9.411,0,0,1,6.793,2.656,8.88,8.88,0,0,1,2.759,6.685,9.427,9.427,0,0,1-9.553,9.553q-44.155-.216-81.626-28.128T145,275.991l-3.611,2.12a70.206,70.206,0,0,1-9.766,4.774q-6.367,2.657-14.754,5.838a88.045,88.045,0,0,1-18.362,4.669A174.3,174.3,0,0,1,78.019,295.2a66.093,66.093,0,0,1-21.551-3.082,83.621,83.621,0,0,1-21.011-9.873q-9.977-6.47-19.319-18.79A124.74,124.74,0,0,1,0,234.162,97.262,97.262,0,0,1,29.085,217.715Z" transform="translate(0)" fill="#95d043"/>
    </g>
  </g>
</svg>
