<svg xmlns="http://www.w3.org/2000/svg" width="479.094" height="310.5" viewBox="0 0 479.094 310.5">
  <g id="vector" transform="translate(-67 -260.556)">
    <g id="Online_Review-cuate" data-name="Online Review-cuate" transform="translate(67 169.062)">
      <g id="freepik--Floor--inject-2" transform="translate(44.292 355.282)">
        <path id="Path_15068" data-name="Path 15068" d="M80.51,421.874l52.091-.281,52.079-.106,104.182-.188,104.17.188,52.091.106,52.091.281-52.091.293-52.091.106-104.17.188-104.182-.188-52.079-.106Z" transform="translate(-80.51 -421.3)" fill="#263238"/>
      </g>
      <g id="freepik--Shadows--inject-2" transform="translate(8.26 364.226)">
        <ellipse id="Ellipse_42" data-name="Ellipse 42" cx="166.365" cy="18.884" rx="166.365" ry="18.884" fill="#ebebeb"/>
      </g>
      <g id="freepik--Puff--inject-2" transform="translate(0 138.994)">
        <path id="Path_15069" data-name="Path 15069" d="M91.575,480.062l192.235.832c46.722-36.7,51.575-91.065,18.215-124.015-20.173-19.927-45.8-15.906-70.189-19.083h-.07c-8.5-1.1-16.832-3.083-24.744-7.256C181.9,317.284,167.742,286,146.608,259.731c-2.637-3.294-5.392-6.505-8.275-9.588-17.383-18.555-51.974-19.165-70.06,6.927C22.324,323.344,43.388,422,91.575,480.062Z" transform="translate(-42.723 -236.779)" fill="#dbdbdb"/>
        <path id="Path_15070" data-name="Path 15070" d="M80.8,325.714c5.04,78.875,96.117,108.32,153.026,84.689,49.465-20.548,33.278-67.435-8.475-75.288h-.094c-8.5-1.1-16.832-3.083-24.744-7.256C175.4,314.6,161.237,283.317,140.1,257.049,108.642,240.686,77.111,267.962,80.8,325.714Z" transform="translate(-36.218 -234.098)" fill="#c7c7c7"/>
      </g>
      <g id="freepik--Character--inject-2" transform="translate(62.97 91.494)">
        <path id="Path_15071" data-name="Path 15071" d="M226.461,456.4c-2.661-.973-62.781-49.032-63.918-52.314-.445-1.242,6.048-10.409,14.207-21.263,1.758-2.344,3.587-4.689,5.462-7.185,12.155-15.836,25.412-32.352,25.412-32.352l40.311,32.035-26.514,31.461L215.56,413.7s14.793,28.695,15.648,32.422S229.122,457.377,226.461,456.4Z" transform="translate(-85.068 -170.942)" fill="#ffbe9d"/>
        <path id="Path_15072" data-name="Path 15072" d="M226.461,451.652c-2.661-.973-62.781-49.031-63.918-52.313-.527-1.512,9.155-14.734,19.669-28.448l39.209,31.144-5.861,6.916s14.793,28.694,15.648,32.422S229.122,452.625,226.461,451.652Z" transform="translate(-85.068 -166.19)" fill="#fff"/>
        <path id="Path_15073" data-name="Path 15073" d="M226.461,450.6c-2.661-.973-62.781-49.032-63.918-52.314-.445-1.242,6.048-10.409,14.207-21.263L215.6,407.895s14.793,28.695,15.648,32.422S229.122,451.569,226.461,450.6Z" transform="translate(-85.068 -165.135)" fill="#ffbc56"/>
        <path id="Path_15074" data-name="Path 15074" d="M226.965,444.25c-9.881-8.3-50.52-40.862-60.952-48.317-.094-.059-.129,0,0,.07,9.612,8.44,50.52,40.662,60.835,48.41C227.023,444.578,227.141,444.426,226.965,444.25Z" transform="translate(-84.482 -161.882)" fill="#263238"/>
        <path id="Path_15075" data-name="Path 15075" d="M221.466,426.9a10.35,10.35,0,0,0-7.994-2.344,9.975,9.975,0,0,0-6.552,3.587c0,.059.059.152.117.094a11.98,11.98,0,0,1,14.324-1.172.1.1,0,1,0,.105-.164Z" transform="translate(-77.424 -156.966)" fill="#263238"/>
        <path id="Path_15076" data-name="Path 15076" d="M212.674,407.565c-4-3.282-9.811-5.591-14.957-4.3-.2.059-.117.34,0,.375a71.575,71.575,0,0,1,14.582,4.478.333.333,0,1,0,.375-.551Z" transform="translate(-79.029 -160.679)" fill="#263238"/>
        <path id="Path_15077" data-name="Path 15077" d="M214.493,410.685c-3.985-3.282-9.8-5.591-14.945-4.3-.2.059-.117.34,0,.375a71.792,71.792,0,0,1,14.617,4.524.341.341,0,1,0,.328-.6Z" transform="translate(-78.714 -160.142)" fill="#263238"/>
        <path id="Path_15078" data-name="Path 15078" d="M216.323,413.885c-3.985-3.282-9.8-5.591-14.945-4.3-.2,0-.129.34,0,.363a72.25,72.25,0,0,1,14.57,4.489.333.333,0,1,0,.375-.551Z" transform="translate(-78.4 -159.591)" fill="#263238"/>
        <path id="Path_15079" data-name="Path 15079" d="M218.153,417.045c-3.985-3.282-9.8-5.591-14.945-4.3-.2,0-.129.328,0,.363a71.5,71.5,0,0,1,14.57,4.489.333.333,0,1,0,.375-.551Z" transform="translate(-78.085 -159.047)" fill="#263238"/>
        <path id="Path_15080" data-name="Path 15080" d="M175.79,389.656c-4.536-3.6-10.139,3.446-5.6,7.033S180.338,393.267,175.79,389.656Z" transform="translate(-84.037 -163.13)" fill="#263238"/>
        <path id="Path_15081" data-name="Path 15081" d="M224.333,401.155c-.68-3.329-4.583-3.728-7.244-2.977a27.123,27.123,0,0,0-11.909,7.385.141.141,0,0,0,0,.223.621.621,0,0,0,.469.9c4.454.3,9.19,1.172,13.609.117C221.872,406.23,224.99,404.3,224.333,401.155Zm-11.792,4.618c-2.2-.094-4.384-.3-6.576-.328,2.344-1.43,4.571-2.954,7.033-4.161a30,30,0,0,1,3.645-1.535c1.946-.633,8.6-.844,5.5,3.868C220.442,406.23,215.155,405.89,212.541,405.773Z" transform="translate(-77.736 -161.547)" fill="#263238"/>
        <path id="Path_15082" data-name="Path 15082" d="M195.933,400.148c3.083,3.341,7.5,5.24,11.382,7.455a.621.621,0,0,0,.891-.492c.082,0,.164,0,.152-.152a27.041,27.041,0,0,0-5.8-12.765c-1.793-2.11-5.251-3.939-7.678-1.559S194.128,398.191,195.933,400.148Zm-.6-4.243c0-5.65,5.451-1.77,6.717-.176a28.311,28.311,0,0,1,2.168,3.317,70.794,70.794,0,0,1,3.516,7.373c-1.84-1.172-3.763-2.25-5.65-3.387C199.918,401.672,195.311,399.011,195.335,395.905Z" transform="translate(-79.706 -162.639)" fill="#263238"/>
        <path id="Path_15083" data-name="Path 15083" d="M296.342,323.477c-.07,6.025-6.1,17.02-14.347,29.3-15.871,23.666-40.029,52.091-46,59.03l-1.36,1.571-42.69-32.821.492-.633L230.032,330.7l-112.152-.656,42.585-33.114s3.458,1.993,10.632.938c24.756-3.622,80.563-11.64,93.714-11.112C281.783,287.48,296.6,304.09,296.342,323.477Z" transform="translate(-92.754 -180.679)" fill="#2e5d32"/>
        <path id="Path_15084" data-name="Path 15084" d="M271.043,346.332c-15.871,23.666-40.029,52.091-46,59.03L181.49,373.491l37.591-49.231Z" transform="translate(-81.802 -174.218)" fill="#263238"/>
        <path id="Path_15085" data-name="Path 15085" d="M227.331,308.656a49.953,49.953,0,0,0-3.88,4.97l-4,5.2v.059c.234-.516.469-1.032.715-1.536.832-1.735,1.5-3.516,2.5-5.181.059-.105-.094-.2-.152-.094-1.02,1.641-2.2,3.212-3.071,4.946-.41.809-.8,1.641-1.172,2.473-.2.457-.41.926-.586,1.383-.082.223-.176.445-.246.68-.586.809-1.172,1.618-1.746,2.45-1.266,1.828-2.344,3.762-3.669,5.591-.07.094.094.188.164.094,1.289-1.711,2.743-3.306,4.067-5.005s2.614-3.517,3.868-5.3,2.426-3.516,3.657-5.251a53.657,53.657,0,0,0,3.692-5.4.081.081,0,1,0-.141-.082Z" transform="translate(-76.549 -176.911)" fill="#263238"/>
        <path id="Path_15086" data-name="Path 15086" d="M131.306,257.421c7.947,9.788,36.806,37.767,54.822,41.87,9.928,2.262,57.9,8.979,64.469,2.989,7.713-7.033,4.138-33.418-1.993-33.664-18.684-.739-53.263,2.919-61.9,1.02-3.915-.867-24.615-14.23-46.746-24.909C131.658,240.682,125.95,250.763,131.306,257.421Z" transform="translate(-90.801 -188.07)" fill="#f7a9a0"/>
        <path id="Path_15087" data-name="Path 15087" d="M241.541,266.462s-.106,1.02-.281,2.755a3.5,3.5,0,0,1-.082.9c-.105,1-.223,2.168-.352,3.458v.457q-.152,1.618-.352,3.446c0,.293-.07.6-.094.9-.117,1.114-.246,2.274-.363,3.458v.457c-.129,1.172-.246,2.344-.375,3.517,0,.293-.07.6-.094.891-.129,1.172-.258,2.344-.387,3.458a1.228,1.228,0,0,1-.059.457c-.129,1.172-.258,2.344-.387,3.458l-.105.891c-.094.738-.176,1.465-.258,2.168-.059.434-.117.867-.164,1.289v.457q-.129.985-.246,1.9c-.07.539-.141,1.067-.2,1.559a5.443,5.443,0,0,1-.141.891c-.234,1.606-.434,2.813-.61,3.517a1.678,1.678,0,0,1-.152.457s-.059.07-.082.07l-.6-.07-1.664-.176-.9-.094-1.922-.187-1.524-.152h-.469l-3.446-.352-.9-.094-3.446-.352h-.469l-3.446-.363-.9-.094-3.446-.375h-.469l-3.446-.375-.9-.106-3.446-.4h-.469l-3.446-.41-.9-.106-.738-.094-2.708-.34-.469-.059-3.446-.457h-.223l-.68-.094-3.446-.492-.469-.07q-1.864-.281-3.446-.563l-.9-.164c-1.36-.246-2.532-.481-3.446-.715l-.469-.117-.246-.07a14.515,14.515,0,0,1-2.766-1.172l-.434-.223-.422-.234-.481-.27c-1.067-.633-2.215-1.371-3.446-2.227-.152-.094-.3-.211-.469-.328l-.891-.633-1.231-.891-1.325-1-.9-.692-2.227-1.77-.574-.457-.645-.527-.469-.387-.621-.5c-.8-.668-1.618-1.336-2.426-2.039a5.126,5.126,0,0,1-.4-.34l-.656-.551-.246-.211c-1.172-.985-2.344-1.981-3.446-3l-.281-.246-.188-.164-.328-.293-3.118-2.8-.727-.656-.176-.164-.821-.738c-.891-.809-1.77-1.629-2.637-2.438l-.656-.715-.633-.586-.492-.457-2.344-2.192-.9-.856-.434-.41-.949-.9-2.075-1.993-.457-.445-1.031-1.008-.481-.469L135.12,263.4l-.891-.891-.645-.633-.75-.762-.129-.141a19.246,19.246,0,0,1-1.934-2.286c-.164-.211-.316-.434-.457-.656s-.223-.34-.328-.5a3.824,3.824,0,0,1-.281-.469,15.987,15.987,0,0,1-1.559-3.446,8.771,8.771,0,0,1-.27-.9,11.545,11.545,0,0,1-.375-3.446V248.8a6.787,6.787,0,0,1,1.278-3.446,5.726,5.726,0,0,1,.867-.9,4.986,4.986,0,0,1,.621-.457,4.256,4.256,0,0,1,.457-.27,7.961,7.961,0,0,1,3.458-.832h.938a16.534,16.534,0,0,1,2.907.4h0l.551.141a3.265,3.265,0,0,1,.457.117,26.86,26.86,0,0,1,2.708.891l.75.3.9.387.445.211c.6.27,1.172.574,1.852.914l1.172.6.457.246,3.153,1.688.3.164.563.3a3.142,3.142,0,0,1,.34.188c1.172.621,2.344,1.254,3.446,1.887l.469.258,1.993,1.172,1.454.821.152.082.75.422,3.446,1.958.469.27,1.395.8.821.469,1.172.7.9.527,3.446,1.969.422.246h0l1.524.879,1.922,1.078.9.516,3.352,1.852h.094l.469.246.328.176c1.172.6,2.169,1.172,3.118,1.606l.9.422a23,23,0,0,0,3.446,1.371h.176l.293.07a4.29,4.29,0,0,0,.492.082,28.055,28.055,0,0,0,2.954.059h.9c1.008,0,2.168,0,3.446-.105h.469l1.395-.059,2.051-.094h.9l3.446-.188h.469l3.446-.2h.9l3.446-.211h.469l3.446-.211.9-.059,3.446-.223h.469l3.446-.234.9-.059,3.446-.234h.469l3.446-.234.9-.07,3.446-.246h.469Z" transform="translate(-91.099 -188.227)" fill="#ffbc56"/>
        <path id="Path_15088" data-name="Path 15088" d="M130.8,243.722v14.969c-.164-.211-.316-.434-.457-.656V243.968a4.249,4.249,0,0,1,.457-.246Zm7.807-.281V266.8l.457.445V243.558a3.28,3.28,0,0,0-.445-.117Zm-4.349-.551v19.622l.891.891V242.89Zm8.264,1.864v25.788l.9.856V245.141Zm4.349,2.11v27.8l.457.422V247.11Zm8.264,4.478v30.816l.188.164.281.246V251.6Zm-3.786-2.075-.563-.3v29.445h.176l.727.656V249.454a3.154,3.154,0,0,0-.34-.188Zm7.853,4.349-.152-.082v32.035l.246.211.656.551V254.037Zm4.2,2.344v33.219l.469.387v-33.3Zm8.686,4.982-.422-.246v34.837c.164.117.317.234.469.328V260.977Zm-4.771-2.684v34.122l.9.692V258.761Zm8.264,4.689V298.38h.481l.422.234V263.45Zm4.349,2.415V300.08l.469.117V265.618Zm8.44,3.868h-.176v32.4l.469.07V269.24Zm-4.525-1.84v33.524l.9.164V267.822Zm8.205,2.051v32.82h.9V269.428Zm4.349-.129V302.8l.469.059V269.3Zm8.205-.41v34.9h.469V268.889Zm-4.349.234V303.28l.9.105V269.1Zm8.205-.457v35.563l.9.105v-35.7Zm4.349-.258v36.337h.469V268.42Zm8.264-.528v37.72h.469V267.869Zm-4.349.281v36.97l.9.094V268.127Zm8.264-.551V306l.9.094V267.634Zm4.349-.293v39.115h.469V267.306Zm8.264-.586v33.993q.117-.914.246-1.9v-.457a9.942,9.942,0,0,1,.164-1.289V266.72Zm-4.349.316v39.771l.9.094V267Zm-1.922,39.584,1.922.188.9.094,1.664.176h.68a1.675,1.675,0,0,0,.152-.457ZM192.647,302.3h.223l3.446.457.469.059,2.708.34h37.943a5.01,5.01,0,0,1,.141-.891ZM175.92,298.38l.422.234.434.223h61.245v-.457Zm-11.546-8.264.574.457h73.846a1.229,1.229,0,0,1,.059-.457Zm5.029,3.915,1.231.891h67.728l.105-.891Zm-10.245-8.2.656.551a5.172,5.172,0,0,0,.4.34h79.215a7.646,7.646,0,0,1,.094-.891Zm-4.489-3.915.328.293.188.164h84.583v-.457Zm-9.061-8.264.492.457h94.523v-.457Zm4.22,3.9.821.738v.164h89.53a7.6,7.6,0,0,1,.094-.9Zm48.352-8.264-1.395.059h-.469c-1.278,0-2.438.094-3.446.105h-.9a27.99,27.99,0,0,1-2.954-.059,4.29,4.29,0,0,1-.492-.082v-.07H141.142l.949.9h99.071c0-.317.059-.621.082-.9Zm-17.922-3.622-.469-.246H137.1l.481.469h43.147Zm-14.992-8.58H129.737a3.815,3.815,0,0,0,.281.469h36.067Zm6.869,3.938H132.761l.129.141.75.762h40.041Zm-13.081-7.455-1.453-.821H127.908a8.748,8.748,0,0,0,.27.9H159.2ZM150.789,249l-.3-.164h-22.9v.469H151.4Zm-7.361-3.821-.9-.387-.75-.3h-12.05a5.737,5.737,0,0,0-.867.9h15.015Z" transform="translate(-91.084 -188.227)" fill="#fff" opacity="0.2"/>
        <path id="Path_15089" data-name="Path 15089" d="M162.789,288.731c-11.171-9.237-23.971-21.591-29.914-27.593-8.205-8.264-7.349-20.642,5.193-17.829h0C141.479,248.96,156.354,276.693,162.789,288.731Z" transform="translate(-91.093 -188.225)" fill="#d4a358"/>
        <path id="Path_15090" data-name="Path 15090" d="M218.7,266.094c0-.105-.152-.141-.176,0-.539,2.719-.762,5.509-1.067,8.264s-.6,5.685-.856,8.545c-.5,5.673-1.1,11.393-1.289,17.1a.188.188,0,0,0,.363,0c.856-5.6,1.313-11.3,1.84-16.938.258-2.79.516-5.591.715-8.393S218.733,268.942,218.7,266.094Z" transform="translate(-75.98 -184.248)" fill="#263238"/>
        <path id="Path_15091" data-name="Path 15091" d="M171.087,330.931a5.721,5.721,0,0,1-1.864.6l-.469.094-1.172.246-2.227.4-.363.059-.539.082-3.446.551-.469.059c-1.09.176-2.239.34-3.446.516l-.9.129-3.446.48-.469.059-3.446.469-.9.117-3.446.445-.469.059-1.395.176-2.051.27h-.4a1.251,1.251,0,0,0-.5.07l-3.446.422-.469.058-2.919.352-.527.059-.9.117-3.446.422-.469.059-3.446.4-.9.106-3.446.4-.469.059-3.446.4a5.753,5.753,0,0,0-.9.105l-3.446.375-.469.059h-.586l-2.86.3-.9.105-3.446.352-.469.059h-.164c-1.278.129-2.344.234-3.282.3l-.9.082-.985.07a3.618,3.618,0,0,1-.8,0,.832.832,0,0,1-.07-.457,32.933,32.933,0,0,1,.164-3.446,4.063,4.063,0,0,1,.07-.9c.094-1.02.211-2.168.352-3.458v-.457c.117-1.078.246-2.227.387-3.458l.106-.891c.129-1.1.27-2.262.422-3.517v-.457q.129-.914.246-1.864l.211-1.594a8.079,8.079,0,0,1,.117-.891c.152-1.172.316-2.274.481-3.458l.07-.457a1.3,1.3,0,0,1,0-.2c.152-1.067.3-2.157.469-3.258a6.038,6.038,0,0,1,.129-.891c.176-1.172.352-2.286.527-3.458l.07-.457c.176-1.172.352-2.344.539-3.516a6.161,6.161,0,0,1,.152-.891c.176-1.172.375-2.344.563-3.458a1.038,1.038,0,0,1,.07-.457c.2-1.172.4-2.344.61-3.458a4.725,4.725,0,0,1,.152-.891c.059-.293.105-.633.164-.938l.457-2.52v-.082l.07-.375c.211-1.172.434-2.344.656-3.458a3.994,3.994,0,0,1,.176-.891c.211-1.172.445-2.344.668-3.517l.105-.457c.234-1.172.469-2.344.715-3.458.07-.3.129-.6.188-.9.258-1.172.516-2.344.785-3.446a.628.628,0,0,1,.082-.375c.082-.129,0-.059,0-.082.27-1.172.551-2.344.821-3.458l.07-.27a2.525,2.525,0,0,1,.164-.633c.293-1.172.586-2.344.891-3.446a1.752,1.752,0,0,1,.129-.469c.316-1.172.645-2.344.973-3.446l.281-.9c.328-1.09.668-2.133,1.008-3.118a.923.923,0,0,1,.117-.328c.047-.106.105-.317.164-.469s.117-.352.188-.516c.2-.574.41-1.172.621-1.653s.34-.867.516-1.278.27-.61.4-.9a22.264,22.264,0,0,1,1.887-3.446h0s.211-.3.316-.434a9.032,9.032,0,0,1,.586-.692l.328-.328.621-.563c.8-.7,1.536-1.325,2.227-1.864a2.117,2.117,0,0,1,.27-.211l.469-.363.445-.328c1.078-.8,2.063-1.442,3-2.028l1.09-.316.188-.117a7.74,7.74,0,0,1,1.594-.727,14.848,14.848,0,0,1,1.664-.445h.129l.34-.07a32.9,32.9,0,0,1,3.446-.434h.9c1.172,0,2.344-.082,3.446,0h.469a32.148,32.148,0,0,1,3.446.211l.9.105a10.631,10.631,0,0,1,1.606.293l.2.07a2.575,2.575,0,0,1,.633.4,9.391,9.391,0,0,1,1.008.973l.469.528A22.437,22.437,0,0,1,145.98,245c.211.293.422.586.633.9.434.645.879,1.348,1.325,2.086.27.434.551.891.809,1.36l.094.152.176.316c.621,1.1,1.172,2.262,1.782,3.446.152.293.293.6.434.9q.563,1.231,1.055,2.5c.129.316.246.633.363.949l.105.281.07.188a34.614,34.614,0,0,1,1.008,3.329.354.354,0,0,1,0,.117c.07.258.141.563.234.9.223.9.516,2.063.879,3.446a1.877,1.877,0,0,0,.129.469c.27,1.043.563,2.192.9,3.446a3.449,3.449,0,0,0,.2.8.338.338,0,0,1,0,.106q.422,1.559.879,3.305v.152a2.184,2.184,0,0,0,.117.457l.914,3.446c.07.293.152.6.234.9.293,1.172.6,2.274.9,3.458a1.675,1.675,0,0,0,.129.457c.293,1.172.6,2.344.9,3.517l.211.809a.752.752,0,0,1,0,.082c.152.551.293,1.113.445,1.676l.457,1.782a1.676,1.676,0,0,0,.129.457c.293,1.172.6,2.344.891,3.458.082.293.164.586.234.891.3,1.172.609,2.344.9,3.458a2.187,2.187,0,0,0,.117.457c.234.914.481,1.829.715,2.743l.176.715c.082.293.152.6.234.891l.492,1.911c.129.527.258,1.043.4,1.547a1.643,1.643,0,0,0,.117.457l.867,3.458c.082.3.152.6.234.891.293,1.172.586,2.344.856,3.458a2.188,2.188,0,0,0,.117.457l.844,3.458h0l.211.868c.082.387.176.762.258,1.172.2.809.387,1.594.551,2.344l.105.457c.3,1.324.551,2.485.75,3.516.07.317.129.621.176.891A7.033,7.033,0,0,1,171.087,330.931Z" transform="translate(-96.437 -188.649)" fill="#ffbc56"/>
        <path id="Path_15092" data-name="Path 15092" d="M103.121,290.939v49.137l-.469.059V293.541l.457-2.52A.663.663,0,0,0,103.121,290.939Zm-3.938,24.416-.07.457c-.164,1.172-.328,2.344-.481,3.458a7.4,7.4,0,0,1-.117.891l-.246,1.594v18.755l.9-.082V315.156A1.3,1.3,0,0,0,99.182,315.355Zm8.205-44.777c-.27,1.172-.551,2.286-.821,3.458h0v65.641l.9-.106V270.309Zm3.774-13.058a2.041,2.041,0,0,1-.164.469c-.047.164-.082.223-.117.328v80.961l.469-.059V256.981A2.478,2.478,0,0,1,111.162,257.52Zm7.982-11.921v92.742l.469-.059v-93.07Zm-4.032,3.657c-.105.129-.211.281-.316.434v89.155a8.191,8.191,0,0,0,.9-.105v-90.2q-.292.332-.551.692Zm7.947-6.377v95l.9-.105v-95.5Zm4.478-1.887h-.129V337.38l.469-.059V240.9Zm8.135-.61v95.988l.469-.059V240.36Zm-4.349.105v96.387l.9-.117v-96.34Zm8.205.105v95.3a1.252,1.252,0,0,0,.5-.07h.4V240.677Zm4.349,1.84v92.894l.469-.059V242.939ZM152.6,257.52c-.117-.317-.234-.633-.363-.949v77.668l.469-.059V257.52Zm-3.9-8.205c-.258-.469-.539-.926-.809-1.36v86.927l.9-.117v-85.38Zm7.478,21.345a.34.34,0,0,0,0-.105v63.156l.9-.129V273.931q-.481-1.782-.9-3.352Zm4.349,16.527a.767.767,0,0,0,0-.082v46.007l.469-.059V288.864c-.176-.645-.317-1.207-.469-1.758Zm8.451,33.055-.211-.867v12.343l.469-.094V321.38c-.082-.457-.176-.832-.258-1.219Zm-4.149-16.528c-.082-.293-.152-.6-.234-.891l-.176-.715v30.312l.539-.082.363-.059v-26.7ZM96.451,340.146a.832.832,0,0,0,.07.457h1.747v-.07l.9-.082c.9-.07,2-.176,3.282-.3Zm.234-4.349a3.762,3.762,0,0,1-.07.9h36.173l2.919-.352.469-.059,3.446-.422a1.251,1.251,0,0,0,.5-.07Zm.4-3.915v.457H165l.363-.059,2.227-.4Zm72.674-8.264h-71.7v.457h71.83Zm.856,3.915H97.576l-.105.891h73.342c-.047-.27-.105-.574-.176-.891Zm-1.875-8.205H98.631a7.394,7.394,0,0,1-.117.891h70.459Zm-.973-3.938H99.182l-.07.457h68.794c-.035-.188-.082-.34-.117-.492Zm-2.075-8.205H100.4l-.07.457h65.5c-.047-.246-.082-.4-.117-.551Zm.985,3.915H99.8a5.63,5.63,0,0,1-.129.891h67.259c-.082-.387-.152-.68-.234-.985Zm-2.11-8.264H101.093a5.657,5.657,0,0,1-.152.891h63.883c-.082-.387-.152-.692-.234-.985Zm-1.008-3.915H101.784a1.039,1.039,0,0,1-.07.457h62.042a4.009,4.009,0,0,1-.176-.551Zm-2.157-8.264h-58.21l-.07.375v.082h58.444a1.567,1.567,0,0,0-.141-.551Zm1.02,3.915H102.488a5.9,5.9,0,0,1-.152.891h60.4c-.129-.434-.211-.692-.293-.985Zm-1.946-7.455-.211-.809H104c-.07.293-.129.6-.176.891H160.5a.753.753,0,0,0,0-.176Zm-1.242-4.689H104.8l-.106.457h54.693a1.776,1.776,0,0,0-.164-.586Zm-2.169-8.264h-50.52v.082a.628.628,0,0,1-.082.375h50.719a2.643,2.643,0,0,0-.094-.586Zm1.031,3.9H105.7a4.127,4.127,0,0,1-.188.9h52.841c-.082-.434-.164-.738-.234-1.031Zm-1.969-7.467c-.07-.27-.141-.539-.2-.8H107.645a3.149,3.149,0,0,1-.164.633l-.07.27h48.762a.34.34,0,0,0-.023-.235Zm-1.172-4.689h-46.3a2.33,2.33,0,0,1-.129.469h46.523c-.047-.316-.094-.469-.129-.656Zm-2.215-7.982v-.41H111.162a2.041,2.041,0,0,1-.164.469h41.776Zm1.1,3.634H109.907l-.281.9h44.413c-.094-.492-.164-.8-.234-1.055Zm-3.059-8.205H112.92c-.129.293-.27.586-.4.9H151.2a9.128,9.128,0,0,0-.457-1.114Zm-1.958-3.763-.094-.152H115.147c-.106.129-.211.281-.316.434h34.157Zm-6.459-8.346-.2-.07H127.443a14.877,14.877,0,0,0-1.664.445h17.184a2.578,2.578,0,0,0-.633-.586Zm3.6,3.845H120.176l-.445.328-.469.363a2.121,2.121,0,0,0-.27.211h27.569a5.66,5.66,0,0,0-.633-1.114Z" transform="translate(-96.444 -188.662)" fill="#fff" opacity="0.2"/>
        <path id="Path_15093" data-name="Path 15093" d="M140.536,334.41c-11.053,1.418-23.209,2.848-32.246,3.833l1.676-83.985c1.313-3.376,2.684-5.861,4.056-7.115l.621-.563Z" transform="translate(-94.405 -187.591)" fill="#d4a358"/>
        <path id="Path_15094" data-name="Path 15094" d="M151.393,322.149q-.844-3.9-1.7-7.807-1.723-7.807-3.516-15.6-3.622-15.718-7.678-31.332c-1.5-5.861-3.106-11.651-4.583-17.5a.094.094,0,0,0-.176,0c2.708,10.362,5.064,20.818,7.49,31.25s4.806,20.771,7.127,31.18l1.934,8.756c.645,2.954,1.172,6,2.016,8.885.094.328.668.258.621-.094C152.624,327.389,151.944,324.728,151.393,322.149Z" transform="translate(-90.023 -187.029)" fill="#263238"/>
        <path id="Path_15095" data-name="Path 15095" d="M135.811,256.571c-4.337.6-11.018-6.587-13.4-12.12-.164-.375.75-4.126,1.653-8.733.528-2.8,1.055-5.931,1.336-8.815,0-.6,1.969.68,1.969.68l3.645,1.266,12.085,4.173a46.159,46.159,0,0,0-2.8,10.925,5.858,5.858,0,0,0,0,1.172v.2C140.464,247.639,140.007,255.985,135.811,256.571Z" transform="translate(-91.977 -191.006)" fill="#ffbe9d"/>
        <path id="Path_15096" data-name="Path 15096" d="M139.751,244.938v.2a11.468,11.468,0,0,1-1.864-.082C125.709,243.625,125.65,228,125.65,228l4.806.668,12.085,4.173a46.16,46.16,0,0,0-2.8,10.925A5.864,5.864,0,0,0,139.751,244.938Z" transform="translate(-91.416 -190.79)" fill="#eb996e"/>
        <path id="Path_15097" data-name="Path 15097" d="M127.226,208.353c-3.247,5.861-3.727,24.862-.094,29.867,5.286,7.267,15.824,10.057,22.482,3.282,6.447-6.576,6.634-31.285,2.344-36.032C145.758,198.472,132.032,199.609,127.226,208.353Z" transform="translate(-91.598 -195.454)" fill="#ffbe9d"/>
        <path id="Path_15098" data-name="Path 15098" d="M140.469,220.66s-.105.059-.105.105c0,1.278-.211,2.743-1.383,3.13v.07C140.41,223.813,140.668,221.867,140.469,220.66Z" transform="translate(-89.121 -192.054)" fill="#263238"/>
        <path id="Path_15099" data-name="Path 15099" d="M139.562,219.491c-2.051-.211-2.344,3.892-.434,4.1S141.273,219.679,139.562,219.491Z" transform="translate(-89.316 -192.256)" fill="#263238"/>
        <path id="Path_15100" data-name="Path 15100" d="M146.543,221.27s.105.07.094.129c-.129,1.266,0,2.743,1.067,3.247v.07C146.285,224.47,146.227,222.454,146.543,221.27Z" transform="translate(-87.846 -191.949)" fill="#263238"/>
        <path id="Path_15101" data-name="Path 15101" d="M147.772,220.21c2.063,0,1.934,4.1,0,4.114S146.049,220.222,147.772,220.21Z" transform="translate(-87.844 -192.131)" fill="#263238"/>
        <path id="Path_15102" data-name="Path 15102" d="M138.16,218.2a15.942,15.942,0,0,0,1.629-.445,2.707,2.707,0,0,0,1.571-.774.879.879,0,0,0-.059-1.067,2.169,2.169,0,0,0-2.157-.375,3.165,3.165,0,0,0-1.922,1.243.926.926,0,0,0,.938,1.418Z" transform="translate(-89.45 -192.959)" fill="#263238"/>
        <path id="Path_15103" data-name="Path 15103" d="M149.528,218.966c-.563-.141-1.055-.352-1.606-.539a2.743,2.743,0,0,1-1.524-.867.867.867,0,0,1,.117-1.055,2.192,2.192,0,0,1,2.18-.258,3.212,3.212,0,0,1,1.852,1.348.938.938,0,0,1-1.02,1.371Z" transform="translate(-87.866 -192.844)" fill="#263238"/>
        <path id="Path_15104" data-name="Path 15104" d="M139.026,230.284c.281.317.563.75,1.02.821a3.353,3.353,0,0,0,1.395-.223v.07a1.735,1.735,0,0,1-1.664.574,1.359,1.359,0,0,1-.926-1.172C138.862,230.249,139.026,230.237,139.026,230.284Z" transform="translate(-89.143 -190.401)" fill="#263238"/>
        <path id="Path_15105" data-name="Path 15105" d="M139.913,229.475a4.349,4.349,0,0,0,2.755,2.133,5.36,5.36,0,0,0,1.559.176,1.3,1.3,0,0,0,.3,0h.281a.317.317,0,0,0,.27-.27h0a.48.48,0,0,0,0-.129h0v-.152c.094-.985.094-2.473.094-2.473.352.2,2.122,1.172,2.122.633a65.288,65.288,0,0,0-.762-13.245.117.117,0,1,0-.234,0c-.211,4.091.316,8.205.176,12.308a7.647,7.647,0,0,0-2-.774,26.205,26.205,0,0,0,0,3.341h0a6.037,6.037,0,0,1-4.384-1.711C139.948,229.287,139.843,229.369,139.913,229.475Z" transform="translate(-88.964 -192.851)" fill="#eb996e"/>
        <path id="Path_15106" data-name="Path 15106" d="M153.141,212.683c-6.529,3.716-14.429-3.388-14.429-3.388a6.74,6.74,0,0,1-7.162,3.681s-2.086,10.338-4.841,10.092c-4.2-.375-4.3-14.734-2.743-17.418s5.181-3.106,5.181-3.106a6.916,6.916,0,0,1,3.2-3.915c3.048-1.958,12.683,1.829,12.683,1.829a9.259,9.259,0,0,1,2.825-3.212,2.6,2.6,0,0,1,3.7.656,6.153,6.153,0,0,0-1.172,2.5c-.75,3.012,1.747,3.212,1.957.445a4.407,4.407,0,0,0-.738-2.942c1.383-1.711,3.446-2.133,4.583-1.055C158.216,198.793,158.568,209.6,153.141,212.683Z" transform="translate(-91.865 -196.255)" fill="#263238"/>
        <path id="Path_15107" data-name="Path 15107" d="M128.627,221.5s-3.024-6.7-5.99-5.732-1.465,10.139,1.465,11.909a3.27,3.27,0,0,0,4.63-.914Z" transform="translate(-92.212 -192.913)" fill="#ffbe9d"/>
        <path id="Path_15108" data-name="Path 15108" d="M122.825,218s-.07.059,0,.082c2.051,1.313,2.825,3.587,3.247,5.861a1.805,1.805,0,0,0-2.567-.985c-.059,0,0,.129,0,.129a2.016,2.016,0,0,1,2.051,1.1,10.128,10.128,0,0,1,.7,1.946c.07.223.445.188.41-.059h0C127.255,223.193,125.8,218.832,122.825,218Z" transform="translate(-91.908 -192.512)" fill="#eb996e"/>
        <path id="Path_15109" data-name="Path 15109" d="M140.789,243.1l-3.938,9.823L123.242,239.84l-3.622,4.419s13.55,21.029,13.609,20.067l4.114-9.307,6.517,6.2-.973-16.012Z" transform="translate(-92.454 -188.752)" fill="#ffbc56"/>
        <path id="Path_15110" data-name="Path 15110" d="M143.865,252.614c-.246-2.637-.422-5.31-.8-7.936a.094.094,0,0,0-.176,0c-.457,2.567.551,12.648.61,15.074h0c-.281-.27-6.037-5.451-6.1-5.368-.9,1.489-3.927,8.205-4.138,8.873-2.145-3.341-11.218-16.492-13.726-19.634a.094.094,0,0,0-.152.094c1.911,3.516,13.632,20.9,13.8,20.853a101.828,101.828,0,0,0,4.3-9.834c.985,1.172,6.822,7.033,6.834,6.6a82.712,82.712,0,0,0-.457-8.721Z" transform="translate(-92.494 -188.104)" fill="#263238"/>
        <path id="Path_15111" data-name="Path 15111" d="M183.41,313.134h47.6L240,245.77h-47.59Z" transform="translate(-81.472 -187.731)" fill="#a6a6a6"/>
        <path id="Path_15112" data-name="Path 15112" d="M185.41,313.134H233l9-67.364H194.4Z" transform="translate(-81.128 -187.731)" fill="#dbdbdb"/>
        <path id="Path_15113" data-name="Path 15113" d="M214.864,272.349a5.157,5.157,0,0,1-5.04,4.63,4.173,4.173,0,0,1-4.22-4.63,5.146,5.146,0,0,1,5.029-4.689,4.184,4.184,0,0,1,4.232,4.689Z" transform="translate(-77.655 -183.962)" fill="#fff"/>
        <path id="Path_15114" data-name="Path 15114" d="M110.425,260.7c-2.239,31.355,3.282,52.947,8.8,55.256,14.886,6.236,60.144,9.706,70.517,8.6,4.056-.422,1.383-34.051-2.977-33.993-10.807.293-50.4.621-50.919.387-3.364-1.582-3.516-12.038-11.3-34.379C118.279,238.545,111.339,247.876,110.425,260.7Z" transform="translate(-94.125 -187.598)" fill="#f7a9a0"/>
        <path id="Path_15115" data-name="Path 15115" d="M211.084,278.841a4.865,4.865,0,0,1,0,5.544,7.174,7.174,0,0,1,3.7,3.2c1.325,2.661-2.251,5.861-2.251,5.861a8.92,8.92,0,0,1,3.364,4.009c1.02,2.673-2.133,6.459-2.133,6.459a7.831,7.831,0,0,1,.75,5.38c-.809,3.118-8.58,7.092-13.21,8.568s-19.13,1.348-21.908,1.594l-9.741-29.609s18.848-12.53,24.533-13.5C199.046,275.571,208.845,275.817,211.084,278.841Z" transform="translate(-83.839 -182.531)" fill="#ffbe9d"/>
        <path id="Path_15116" data-name="Path 15116" d="M207.041,282.81c-5.3-.363-10.409.867-15.59,1.817-.117,0-.082.2,0,.176,5.134-1,10.409-.961,15.578-1.747a.129.129,0,0,0,.012-.246Z" transform="translate(-80.1 -181.365)" fill="#263238"/>
        <path id="Path_15117" data-name="Path 15117" d="M208.269,290.611a13.725,13.725,0,0,0-3.516.575c-1.254.293-2.5.609-3.739.938-2.473.668-4.947,1.395-7.385,2.192a.094.094,0,1,0,0,.176c2.473-.656,4.958-1.289,7.455-1.84,1.254-.281,2.508-.539,3.763-.8a16.415,16.415,0,0,0,3.516-.9.176.176,0,0,0-.094-.34Z" transform="translate(-79.734 -180.012)" fill="#263238"/>
        <path id="Path_15118" data-name="Path 15118" d="M209.222,299.86a9.495,9.495,0,0,0-3.188.691l-3.376.961c-2.262.633-4.513,1.254-6.787,1.805-.117,0-.082.211,0,.176,2.344-.539,4.689-1.055,6.939-1.629,1.172-.27,2.274-.563,3.411-.856a8.871,8.871,0,0,0,3-1.043S209.281,299.86,209.222,299.86Z" transform="translate(-79.34 -178.419)" fill="#263238"/>
        <path id="Path_15119" data-name="Path 15119" d="M182.67,289.069v37.744l-3-.152h-1.911l-2.438-.129h-.469l-3.446-.223h-.9l-3.446-.234h-.469l-3.446-.27-.9-.07-3.446-.293h-.469l-3.446-.317-.9-.094-3.446-.363h-.469c-1.172-.117-2.344-.258-3.446-.387l-.9-.105-3.446-.445-.457-.363-1.676-.234-1.77-.258-.9-.141-.328-.059c-1.067-.164-2.1-.34-3.118-.527l-.469-.082c-1.172-.211-2.344-.434-3.446-.668l-.9-.2c-1.172-.27-2.344-.539-3.446-.832l-.469-.129q-1.793-.492-3.27-1.02l-.176-.059-.9-.352c-.375-.164-.738-.317-1.067-.481a10.175,10.175,0,0,1-2.344-1.465l-.117-.105-.352-.363a9.608,9.608,0,0,1-1.172-1.524c-.094-.141-.176-.293-.27-.457a22.79,22.79,0,0,1-1.594-3.458l-.316-.891-.105-.328c-.316-.938-.621-1.946-.9-3.012V306.6l-.105-.457c-.293-1.1-.551-2.262-.809-3.517a6.233,6.233,0,0,0-.164-.891c-.234-1.113-.434-2.274-.621-3.458a3.127,3.127,0,0,0-.082-.457c-.176-1.172-.34-2.286-.492-3.458a7.726,7.726,0,0,0-.117-.891c-.141-1.172-.281-2.344-.4-3.458v-.457c-.117-1.172-.223-2.344-.316-3.458l-.07-.891c-.07-.891-.129-1.782-.188-2.672V281.3c-.07-1.172-.117-2.344-.164-3.458v-.9c0-1.172-.07-2.344-.094-3.446v-4.817c0-1.172,0-2.344.07-3.446v-.469c0-1.172.082-2.344.152-3.446v-.9c0-.563.082-1.09.129-1.606s.129-1.266.2-1.84v-.469c.105-.809.234-1.536.363-2.168.094-.445.188-.867.3-1.278s.176-.61.27-.9a13.656,13.656,0,0,1,1.606-3.446l.352-.469.293-.352a5.6,5.6,0,0,1,.9-.856,4.442,4.442,0,0,1,3.446-1.008l.469.094a7.4,7.4,0,0,1,3.423,2.122h0c.141.141.281.281.422.445s.328.363.481.563a19.527,19.527,0,0,1,1.922,2.884l.492.9c.352.692.692,1.43,1.031,2.227.152.375.316.762.469,1.172h0l.176.469c.34.926.68,1.911,1,2.954a1.983,1.983,0,0,0,.152.492c.047.164.176.6.281.9l1.043,3.446.141.469c.211.715.422,1.418.633,2.1.141.457.281.9.41,1.348s.188.61.27.9.152.469.223.7l.844,2.755a1.743,1.743,0,0,0,.152.457c.363,1.172.727,2.344,1.067,3.446.105.3.2.61.281.9.387,1.172.75,2.344,1.1,3.388v.07a2.554,2.554,0,0,0,.152.457l.293.867c.316.949.621,1.805.9,2.591l.34.891a21.214,21.214,0,0,0,1.559,3.458,2.818,2.818,0,0,0,.363.457.492.492,0,0,0,.281.129h.9l3.446-.07H146.7l3.446-.082h.469l3.446-.082h.9l3.446-.082h.469l3.446-.082h.9l3.446-.094h.469l3.446-.094h.9l3.446-.082h.469l3.446-.094h.9Z" transform="translate(-94.27 -187.695)" fill="#ffbc56"/>
        <path id="Path_15120" data-name="Path 15120" d="M109.252,258.894v22.435c-.07-1.172-.117-2.344-.164-3.458v-.9c0-1.172-.07-2.344-.094-3.446V268.7c0-1.172,0-2.344.07-3.446v-.469c0-1.172.082-2.344.152-3.446v-.9A7.4,7.4,0,0,1,109.252,258.894ZM117.047,246v70.33l.352.363.117.106V246.141Zm-4.349,1.864v58.784c.281,1.067.586,2.075.9,3.012V247.055a5.607,5.607,0,0,0-.9.856Zm8.686.821c-.141-.164-.281-.3-.422-.445v70.494l.9.352V249.294c-.152-.2-.316-.387-.481-.563Zm3.927,6.576v64.9l.469.129V256.467c-.152-.4-.34-.785-.469-1.161Zm8.44,26.479c-.059-.152-.105-.3-.152-.457s0,0,0-.07v40.78l.469.082v-39.42Zm-3.845-12.179c-.082-.293-.176-.6-.27-.9s-.27-.891-.41-1.348v53.814l.9.2V269.607Zm7.584,20.572v32.527l.9.141V290.167Zm4.349-.129v33.36l.469.07V290.05Zm8.205-.152V324.3h.469V289.886Zm-4.349.105v33.852l.9.105V289.921Zm8.205-.2v34.954l.9.094V289.78Zm4.349-.105v35.47h.469V289.687Zm8.205-.211v36.337h.469v-36.3Zm-3.9.105H162.1v35.915l.9.07v-35.95Zm7.818-.211V326.07h.9v-36.7Zm4.349-.105v37.122h.469V289.264Zm3.915-.105v37.439h.9V289.053Zm-41.471,33.524.328.059.9.141,1.77.258h42.549v-.457Zm40.639,3.915h1.911l3,.152v-.246ZM119.9,318.3c.328.164.692.317,1.067.481l.9.352.176.059h60.671V318.3Zm-4.278-3.915c.094.164.176.316.27.457H182.7v-.457Zm-3.059-8.205.105.457h70.048v-.457Zm1.172,3.915.316.891h68.689v-.891Zm-2.122-8.264a4.586,4.586,0,0,0,.164.891h70.963v-.891Zm-.7-3.915a.905.905,0,0,0,.082.457h71.748v-.457Zm-1.055-8.264v.457h27.311a2.81,2.81,0,0,1-.363-.457Zm52.454,0h0l-3.446.082h-.469l-3.446.082h-.9l-3.446.082h-.539l-3.446.082h36.056v-.457ZM110.3,293.567a5.8,5.8,0,0,0,.117.891h72.322v-.891Zm24.674-8.205h-25.53l.07.891H135.3Zm-1.325-4.032H109.17v.457h24.545A1.038,1.038,0,0,1,133.645,281.329Zm-2.626-8.264H108.865v.457h22.271c-.059-.152-.105-.3-.164-.457Zm1.172,3.9H108.959v.9H132.4a3.247,3.247,0,0,0-.211-.9Zm-2.555-8.264H108.83v.9h21.1C129.823,269.314,129.73,269.01,129.636,268.7Zm-1.172-3.915H108.912v.469H128.6Zm-2.649-8.205H109.522v.469h16.527Zm1.325,3.915H109.123v.9h18.344a7.386,7.386,0,0,1-.34-.961Zm-3.341-8.205H110.448c-.094.293-.188.6-.27.9h14.066Zm-2.837-3.95h-8.557l-.352.469h9.377A1.736,1.736,0,0,0,120.962,248.344Z" transform="translate(-94.312 -187.691)" fill="#fff" opacity="0.2"/>
        <path id="Path_15121" data-name="Path 15121" d="M180.071,286.265a.387.387,0,0,0-.352-.563c-5.931-.07-11.9.246-17.829.4s-11.886.27-17.829.469c-3.341.117-9.764.41-9.823.317s-1.852-5.673-2.239-6.834c-.75-2.262-1.536-4.513-2.344-6.775-.223-.656-.457-1.313-.692-1.957-.07-.446-.152-.891-.2-1.325s-.141-1.172-.211-1.829a33.859,33.859,0,0,0-.6-3.6.094.094,0,0,0-.176.059,20.145,20.145,0,0,1,.375,3.751l.07.9c-1.172-3.118-1.453-3.669-2.45-6.822a.094.094,0,1,0-.176,0c1.172,4.56,1.805,6.517,3.235,11.018.727,2.274,1.442,4.548,2.2,6.822.375,1.1,2.086,6.259,2.637,7.291.07.129,6.1-.211,9.061-.258s5.943-.094,8.92-.164l17.829-.445c3.294-.082,6.611-.082,9.9-.27,0,.387.293,2.344.27,2.473a.089.089,0,1,0,.176,0C179.825,288.773,180.083,286.3,180.071,286.265Z" transform="translate(-91.425 -184.879)" fill="#263238"/>
        <path id="Path_15122" data-name="Path 15122" d="M166.387,285.322a.094.094,0,0,0-.188,0c-.375,2.614-.434,5.286-.586,7.924s-.27,5.462-.363,8.205c-.176,5.451-.445,10.925-.293,16.41a.176.176,0,0,0,.352,0c.539-5.38.668-10.831.867-16.234q.152-4.009.234-8.041C166.445,290.82,166.586,288.03,166.387,285.322Z" transform="translate(-84.657 -180.936)" fill="#263238"/>
        <path id="Path_15123" data-name="Path 15123" d="M179.756,302.163v-1.747a.421.421,0,0,0,0-.258h0v-.328h-.094v.328h0v.082c-.105,2.825-.41,5.65-.539,8.475s-.176,5.685-.153,8.545c-3.223-.27-6.494-.234-9.729-.4s-6.7-.41-10.057-.68c-6.716-.539-13.421-1.172-20.1-2.122l-5.568-.785c-1.887-.27-3.856-.41-5.708-.856-.117,0-.164.164,0,.188,1.7.211,3.388.68,5.075.985s3.306.586,4.97.844q4.97.8,9.975,1.407,9.987,1.243,20.044,1.747l5.755.246c1.887.059,3.8.176,5.685.082a.34.34,0,0,0,.316-.3c0-2.966.152-5.931.188-8.9v-4.36C179.791,303.616,179.779,302.889,179.756,302.163Z" transform="translate(-91.063 -178.424)" fill="#d4a358"/>
        <path id="Path_15124" data-name="Path 15124" d="M234.13,262.31c2.989,3.845,9.9,8.041,11.1,11.452a4.161,4.161,0,0,1-1.313,4.782s3.892.973,4.466,4.243c.293,1.688-2.145,3.645-2.145,3.645a4.947,4.947,0,0,1,3.411,3.856c.258,2.344-2.215,3.95-2.215,3.95s2.544,2.251,2.04,4.689c-1.008,5.017-20.794,9.377-25.459,2.766-2.18-3.083,2.708-3.88,2.708-3.88s-7.3-.551-8.311-4.607,5.415-4.689,5.415-4.689-7.092-.586-7.7-4.9,5.861-4.056,5.861-4.056-5.052-2-4.771-5.415c.469-5.626,11.511-.832,15.637-2.825Z" transform="translate(-75.846 -184.883)" fill="#ffbe9d"/>
        <path id="Path_15125" data-name="Path 15125" d="M245.59,289.81v.105a35.165,35.165,0,0,1-20.653,3.282c-.223,0-.258-.422,0-.422a71.84,71.84,0,0,0,20.654-2.966Z" transform="translate(-74.354 -180.149)" fill="#263238"/>
        <path id="Path_15126" data-name="Path 15126" d="M245.283,282.9c.07,0,.117.105,0,.141a32.915,32.915,0,0,1-22.752,2.18c-.258-.07-.422-.41-.105-.34C227.677,286.006,239.023,284.857,245.283,282.9Z" transform="translate(-74.785 -181.338)" fill="#263238"/>
        <path id="Path_15127" data-name="Path 15127" d="M220.733,276.843c7.443,1.9,14.758,1.172,22.166-.563.094,0,.117.105,0,.152-3.376,1.864-8.205,2.5-12.026,2.684a20.175,20.175,0,0,1-10.245-2.016C220.534,277.042,220.569,276.807,220.733,276.843Z" transform="translate(-75.073 -182.478)" fill="#263238"/>
        <path id="Path_15128" data-name="Path 15128" d="M366.67,396.523c-.985,2.649-49.231,62.629-52.513,63.754-1.242.434-10.385-6.083-21.216-14.277-2.344-1.77-4.689-3.61-7.173-5.486C269.979,428.313,253.51,415,253.51,415l32.152-40.217,31.379,26.631,6.892,5.861s28.741-14.7,32.481-15.543S367.655,393.863,366.67,396.523Z" transform="translate(-69.403 -165.52)" fill="#ffbe9d"/>
        <path id="Path_15129" data-name="Path 15129" d="M361.933,394.056c-.985,2.649-49.231,62.629-52.513,63.754-1.524.516-14.7-9.213-28.39-19.763l31.273-39.1L319.2,404.8s28.741-14.7,32.481-15.543S362.917,391.395,361.933,394.056Z" transform="translate(-64.665 -163.052)" fill="#fff"/>
        <path id="Path_15130" data-name="Path 15130" d="M360.879,394.059c-.985,2.649-49.231,62.629-52.513,63.754-1.243.434-10.385-6.084-21.216-14.277l30.992-38.752s28.741-14.7,32.481-15.543S361.864,391.4,360.879,394.059Z" transform="translate(-63.612 -163.055)" fill="#ffbc56"/>
        <path id="Path_15131" data-name="Path 15131" d="M354.546,392.425c-8.346,9.858-41.026,50.4-48.516,60.765,0,.082,0,.129.059,0,8.475-9.577,40.838-50.4,48.621-60.671C354.874,392.343,354.722,392.226,354.546,392.425Z" transform="translate(-60.361 -162.5)" fill="#263238"/>
        <path id="Path_15132" data-name="Path 15132" d="M337.167,391a10.339,10.339,0,0,0-2.344,7.983,10.046,10.046,0,0,0,3.516,6.564c.059,0,.152-.059.094-.117a11.991,11.991,0,0,1-1.172-14.336.082.082,0,0,0-.094-.094Z" transform="translate(-55.419 -162.728)" fill="#263238"/>
        <path id="Path_15133" data-name="Path 15133" d="M317.811,399.861c-3.294,3.974-5.626,9.788-4.349,14.933,0,.2.34.129.375,0a71.27,71.27,0,0,1,4.525-14.558.333.333,0,1,0-.551-.375Z" transform="translate(-59.143 -161.227)" fill="#263238"/>
        <path id="Path_15134" data-name="Path 15134" d="M320.981,398.021c-3.294,3.974-5.626,9.788-4.349,14.933,0,.2.328.129.363,0a71.3,71.3,0,0,1,4.536-14.558.333.333,0,1,0-.551-.375Z" transform="translate(-58.597 -161.544)" fill="#263238"/>
        <path id="Path_15135" data-name="Path 15135" d="M324.141,396.221c-3.294,3.974-5.626,9.788-4.349,14.933.059.2.34.129.375,0a71.278,71.278,0,0,1,4.525-14.558.333.333,0,1,0-.551-.375Z" transform="translate(-58.053 -161.854)" fill="#263238"/>
        <path id="Path_15136" data-name="Path 15136" d="M327.311,394.4c-3.294,3.985-5.626,9.788-4.349,14.933,0,.2.328.129.363,0a71.494,71.494,0,0,1,4.536-14.558.333.333,0,0,0-.551-.375Z" transform="translate(-57.507 -162.167)" fill="#263238"/>
        <path id="Path_15137" data-name="Path 15137" d="M299.788,435.755c-3.622,4.525,3.411,10.163,7.033,5.626S303.41,431.231,299.788,435.755Z" transform="translate(-61.61 -155.31)" fill="#263238"/>
        <path id="Path_15138" data-name="Path 15138" d="M311.487,388.773c-3.329.68-3.739,4.572-3,7.232a27.02,27.02,0,0,0,7.349,11.933.129.129,0,0,0,.211,0,.633.633,0,0,0,.914-.469c.316-4.454,1.172-9.178.164-13.609C316.445,391.258,314.569,388.128,311.487,388.773Zm4.571,11.815c-.105,2.192-.317,4.372-.34,6.576q-2.243-3.411-4.138-7.033a29.154,29.154,0,0,1-1.524-3.645c-.633-1.946-.821-8.6,3.88-5.486,2.532,1.688,2.239,6.974,2.063,9.588Z" transform="translate(-59.992 -163.126)" fill="#263238"/>
        <path id="Path_15139" data-name="Path 15139" d="M310.338,416.492c3.352-3.071,5.263-7.49,7.5-11.358a.621.621,0,0,0-.492-.891.141.141,0,0,0-.164-.152,26.96,26.96,0,0,0-12.788,5.755c-2.11,1.782-3.95,5.24-1.582,7.666S308.381,418.285,310.338,416.492Zm-4.243.586c-5.65-.059-1.758-5.462-.141-6.716a28.328,28.328,0,0,1,3.317-2.169c2.344-1.371,4.9-2.344,7.385-3.516-1.172,1.828-2.262,3.751-3.411,5.626C311.886,412.542,309.2,417.1,306.1,417.078Z" transform="translate(-61.106 -160.474)" fill="#263238"/>
        <path id="Path_15140" data-name="Path 15140" d="M342.1,408.366l-33.465,45.152L195.713,375.17l-10.889-7.56s-3.083,2.075-7.725,4.689c-6.447,3.516-15.894,8.076-24.252,9.307-14.066,2.075-37.427,1.852-49.231-13.949-9.952-13.3-3.153-37.4-3.153-37.4l16.41-1.817s33.993-28.4,57.647-29.3c10.022-.4,24.615,7.2,38.13,15.133S342.1,408.366,342.1,408.366Z" transform="translate(-96.142 -178.546)" fill="#2e5d32"/>
        <path id="Path_15141" data-name="Path 15141" d="M177.069,361.007s-3.083,2.075-7.725,4.689c-8.205-9.823-25.577-27.663-26.1-28.3Z" transform="translate(-88.388 -171.956)" fill="#263238"/>
        <path id="Path_15142" data-name="Path 15142" d="M126.972,317.081c-2.18,1.5-4.278,3.118-6.435,4.689s-4.29,2.966-6.295,4.63-3.985,3.516-5.861,5.333c-.926.879-1.852,1.77-2.743,2.673a26.159,26.159,0,0,0-2.626,2.848c-.07.094.07.211.164.152a33.018,33.018,0,0,0,2.919-2.344c1.02-.856,2.016-1.735,3.036-2.59,1.957-1.664,3.95-3.282,5.861-4.958s3.739-3.517,5.662-5.146,4.22-3.517,6.365-5.181C127.054,317.116,127.019,317.046,126.972,317.081Z" transform="translate(-95.316 -175.455)" fill="#263238"/>
        <path id="Path_15143" data-name="Path 15143" d="M304.077,390.944c-2.18,2.344-4.185,4.864-6.212,7.338s-4.056,4.982-6.06,7.49c-4.009,5.005-8.064,10-12,15.062-2.169,2.79-4.3,5.591-6.318,8.486a.134.134,0,1,0,.211.164c4.325-4.747,8.205-9.811,12.272-14.816s8.018-10.057,11.944-15.133c2.157-2.778,4.384-5.544,6.365-8.451a.129.129,0,0,0-.2-.14Z" transform="translate(-65.969 -162.742)" fill="#263238"/>
        <path id="Path_15144" data-name="Path 15144" d="M227.783,334.036c-3.974-4.607-21.017-16.692-31.906-22.1a.094.094,0,0,0-.082.164c10.854,6.974,28.741,20.2,31.824,22.166C227.76,334.352,227.889,334.153,227.783,334.036Z" transform="translate(-79.346 -176.339)" fill="#263238"/>
      </g>
      <g id="freepik--Reviews--inject-2" transform="translate(231.885 0)">
        <rect id="Rectangle_1225" data-name="Rectangle 1225" width="148.481" height="58.552" rx="14" transform="translate(0 102.128)" fill="#ebebeb"/>
        <g id="Group_300" data-name="Group 300" transform="translate(-60 -4.92)">
          <rect id="Rectangle_1226" data-name="Rectangle 1226" width="83.739" height="1.758" transform="translate(74.585 125.41)" fill="#1f1f1f"/>
          <rect id="Rectangle_1227" data-name="Rectangle 1227" width="74.585" height="1.758" transform="translate(74.585 130.766)" fill="#fff"/>
          <rect id="Rectangle_1228" data-name="Rectangle 1228" width="61.656" height="1.758" transform="translate(74.585 136.123)" fill="#fff"/>
          <rect id="Rectangle_1229" data-name="Rectangle 1229" width="67.399" height="1.758" transform="translate(74.585 141.48)" fill="#fff"/>
        </g>
      </g>
      <g id="freepik--Plant--inject-2" transform="translate(323.583 148.771)">
        <path id="Path_15223" data-name="Path 15223" d="M396.3,369.252s26.96-6.1,41.659-19.681,22.986-37.931,22.986-37.931a230.478,230.478,0,0,0-30.171,7.924c-2.415,2.579-7.033,7.889-9.131,12.894a61.28,61.28,0,0,1-.07-9.225,41.022,41.022,0,0,0-9.588,5.861C399.758,339.76,396.3,369.252,396.3,369.252Z" transform="translate(-305.433 -233.668)" fill="#95d043"/>
        <path id="Path_15224" data-name="Path 15224" d="M446.475,322.893c3.669-2.532,7.4-4.982,11.053-7.549a.211.211,0,0,0-.223-.352c-6.939,4.138-13.773,8.569-20.384,13.2-2.344,1.618-4.571,3.294-6.81,5.017l.469-.8c.809-1.36,1.664-2.684,2.508-4.009a57.442,57.442,0,0,1,5.72-7.619c.07-.094-.059-.222-.141-.129-2.086,2.415-4.185,4.806-6.1,7.373a45.077,45.077,0,0,0-2.555,3.763c-.422.68-.82,1.348-1.172,2.039l-.41.692c-3.516,2.731-6.857,5.579-10.092,8.592q-3,2.79-5.779,5.779c1.032-3.259,1.946-6.552,3.153-9.752a.094.094,0,1,0-.176,0c-1.172,3.364-2.462,6.74-3.364,10.2-2.063,2.227-4.032,4.525-5.861,6.928a1.917,1.917,0,0,1,.094-.434c.3-1.266.621-2.532.961-3.8.656-2.426,1.371-4.853,2.192-7.232a42.194,42.194,0,0,1,7.232-13.656c.07-.082-.059-.211-.141-.117-5.251,6.212-8.334,13.679-10.3,21.509-.281,1.172-.563,2.344-.821,3.446-.141.621-.293,1.243-.4,1.864-.821,1.1-1.618,2.215-2.344,3.352a117.035,117.035,0,0,0-11.382,22.271,259.084,259.084,0,0,0-8.627,26.889c0,.176.223.234.281,0,5.263-15.742,10.632-31.649,19.645-45.785a105.01,105.01,0,0,1,6.142-8.592,50.894,50.894,0,0,0,13.081-2.6,58.168,58.168,0,0,0,13.116-6.341,78.225,78.225,0,0,0,6.717-5.076.094.094,0,1,0-.117-.141,53.49,53.49,0,0,1-12.331,7.466,66.72,66.72,0,0,1-13.574,4.548c-1.981.434-4,.762-6.013,1.031a110.541,110.541,0,0,1,7.936-8.791c.9-.9,1.84-1.77,2.778-2.649a62.927,62.927,0,0,1,9.952-5.7c4.407-2.133,8.744-4.4,13.1-6.611,2.462-1.254,4.911-2.532,7.4-3.739.105-.059,0-.211-.106-.164-4.419,2.145-8.909,4.138-13.374,6.177-4.2,1.922-8.451,3.856-12.483,6.119l-.5.3c3.645-3.165,7.42-6.189,11.276-9.108C439.173,328.074,442.818,325.436,446.475,322.893Z" transform="translate(-307.761 -233.093)" fill="#263238"/>
        <path id="Path_15225" data-name="Path 15225" d="M437.729,333.571c-2.192.95-4.419,1.805-6.576,2.813s-4.349,2.262-6.459,3.516a.082.082,0,0,0,.082.141c2.145-1.031,4.325-1.993,6.447-3.059s4.325-2.262,6.564-3.235C437.952,333.7,437.835,333.524,437.729,333.571Z" transform="translate(-300.55 -229.893)" fill="#263238"/>
        <path id="Path_15226" data-name="Path 15226" d="M321.74,245.12a38.481,38.481,0,0,1,8.041,22.341c.082,2.415-.293,5.779-.574,9.729,10.034,5.357,17.582,15,17.582,15-5.7-3.423-13.527-4.806-17.746-4.243a53.181,53.181,0,0,0,1.032,8.041c1.864-.106,5.462.141,11.405,2.25a25.566,25.566,0,0,0-10.28,2.051c4.794,15.238,19.048,30.933,58.409,37.591,0,0,7.6-26.725-6.963-55.4C370.818,259.28,321.74,245.12,321.74,245.12Z" transform="translate(-318.27 -245.12)" fill="#95d043"/>
        <path id="Path_15227" data-name="Path 15227" d="M401.67,401.69c-.68-6.517-1.547-13.023-2.555-19.493a385.355,385.355,0,0,0-7.936-38.541,152.613,152.613,0,0,0-5.685-17.582,25.75,25.75,0,0,0,.153-3.153v-3.774c0-2.532-.141-5.04-.352-7.56a91.2,91.2,0,0,0-2.426-14.757c-.715-2.8-1.559-5.568-2.344-8.346a.094.094,0,0,0-.176.059,108.088,108.088,0,0,1,2.884,14.687A135.52,135.52,0,0,1,384.556,318c0,1.36.07,2.708.082,4.067V323.8a127.438,127.438,0,0,0-6.7-13.7,167.3,167.3,0,0,0-13.48-20.161,8.793,8.793,0,0,0-.316-2.2c-.188-.879-.375-1.758-.574-2.637-.41-1.793-.856-3.587-1.348-5.357-.973-3.516-2.262-7.033-3.388-10.549a.094.094,0,0,0-.176,0c1.043,3.517,1.735,7.1,2.532,10.655.4,1.747.785,3.517,1.172,5.263l.563,2.637v.2q-2.344-3-4.876-5.931c-7.525-8.815-15.766-16.949-24.053-25.026-1.02-1-2.075-1.958-3.106-2.942-.082-.082-.211,0-.129.141,7.936,8.205,15.742,16.633,23.127,25.389,1.758,2.087,3.516,4.185,5.193,6.318l-2.684-1.782c-2.344-1.5-4.618-2.954-7.033-4.29s-4.794-2.649-7.244-3.868-5.228-2.262-7.654-3.68c-.105-.059-.2.117-.094.164a55.824,55.824,0,0,1,7.185,3.974c2.344,1.418,4.782,2.848,7.138,4.349s4.689,2.907,6.939,4.407c1.91,1.243,3.8,2.6,5.79,3.751a187.125,187.125,0,0,1,12.612,18.356,136.754,136.754,0,0,1,6.517,12.366l-1.418-.621-3.54-1.535c-2.344-1.032-4.689-2.028-6.963-3.048-4.419-1.911-8.908-3.681-13.234-5.79a60.186,60.186,0,0,1-7.033-3.915c-.094-.07-.188.094-.094.152,8.076,5.568,17.125,9.483,26.057,13.445l3.88,1.711c1.067.469,2.122,1,3.223,1.407a137.756,137.756,0,0,1,6.658,18.239,371.545,371.545,0,0,1,8.6,38.084c2.251,12.894,3.774,25.788,4.958,38.81.152,1.618.293,3.235.481,4.853a.516.516,0,0,0,1.02,0C403.029,414.807,402.361,408.2,401.67,401.69Z" transform="translate(-316.723 -243.589)" fill="#263238"/>
        <path id="Path_15228" data-name="Path 15228" d="M371.268,288.958c-.727-4-1.793-7.912-2.872-11.827,0-.117-.2-.07-.176,0,1,3.845,1.711,7.771,2.438,11.722s1.383,7.971,1.946,11.98c0,.07.117.07.105,0A106.2,106.2,0,0,0,371.268,288.958Z" transform="translate(-310.268 -239.621)" fill="#263238"/>
        <path id="Path_15229" data-name="Path 15229" d="M358.919,297.8a71.183,71.183,0,0,0-8.557-4.818c-1.43-.739-2.884-1.442-4.337-2.145s-3.059-1.336-4.548-2.086a.094.094,0,0,0-.082.164c1.43.727,2.8,1.594,4.22,2.344l4.36,2.344c2.884,1.547,5.708,3.259,8.733,4.513a.223.223,0,0,0,.211-.317Z" transform="translate(-314.892 -237.609)" fill="#263238"/>
        <path id="Path_15230" data-name="Path 15230" d="M396.72,331.013s24.9-5.943,36.337-22.646c10.924-15.953,14.453-43.136,14.734-45.527-.457,2.192-5.591,25.952-22.541,37.017C412.286,308.378,399.721,315.353,396.72,331.013Z" transform="translate(-305.361 -242.069)" fill="#263238" opacity="0.1"/>
        <path id="Path_15231" data-name="Path 15231" d="M417.68,284.334a31.846,31.846,0,0,0-9.19,15.121s.07.082.082,0a37.239,37.239,0,0,1,9.225-15C417.879,284.392,417.762,284.252,417.68,284.334Z" transform="translate(-303.335 -238.373)" fill="#263238"/>
        <path id="Path_15232" data-name="Path 15232" d="M396.79,331.039s24.9-5.943,36.337-22.646c10.925-15.953,14.453-43.135,14.734-45.527a1.021,1.021,0,0,0,0-.176S435.928,279.663,423.374,284,393.191,303.329,396.79,331.039Z" transform="translate(-305.431 -242.095)" fill="#95d043"/>
        <path id="Path_15233" data-name="Path 15233" d="M444.955,270.717a101.918,101.918,0,0,1-7.666,13.163,52.574,52.574,0,0,1-10.245,10.549c-3.376,2.684-6.951,5.122-10.374,7.748l.07-.117c.645-.961,1.336-1.887,2.039-2.79,1.43-1.817,2.989-3.517,4.56-5.24,3.095-3.352,6.248-6.646,9.026-10.28a38.707,38.707,0,0,0,3.985-6.435c.058-.106-.117-.164-.176-.059-4.032,8.416-12.1,13.8-17.852,20.9-.821,1.02-1.594,2.063-2.344,3.153a13.692,13.692,0,0,0-1.43,2.567,52.009,52.009,0,0,0-8.487,8.58,33.64,33.64,0,0,1,1-4.829,24.622,24.622,0,0,1,2.637-6.306c.059-.106-.094-.2-.152-.106a30.174,30.174,0,0,0-2.907,6.271,21.632,21.632,0,0,0-.9,5.369h0a48.954,48.954,0,0,0-3.364,5.228c.106-.528.2-1.067.3-1.594.492-2.485,1.043-4.958,1.688-7.4a44.2,44.2,0,0,1,5.99-14.066c.07-.094-.082-.2-.152-.106a53.258,53.258,0,0,0-6.635,13.726c-.8,2.438-1.43,4.923-1.993,7.432-.27,1.231-.516,2.461-.75,3.692-.129.633-.258,1.289-.363,1.946a89.28,89.28,0,0,0-5.744,16.879,246.337,246.337,0,0,0-5.31,31.473,261.152,261.152,0,0,0-1.723,33.442c0,1.395.106,2.8.176,4.2a.287.287,0,1,0,.574,0c.246-5.533.387-11.054.715-16.574s.809-11.042,1.407-16.539a294.89,294.89,0,0,1,5.181-32.188c2.028-9.108,4.689-18.274,9.612-26.245a49.042,49.042,0,0,1,8.99-10.678c3.517-3.141,7.3-5.861,10.983-8.779A61.173,61.173,0,0,0,435.4,287.01a79.453,79.453,0,0,0,7.924-12.894c.586-1.172,1.172-2.239,1.782-3.364C445.154,270.717,445,270.611,444.955,270.717Z" transform="translate(-306.921 -240.721)" fill="#263238"/>
        <path id="Path_15234" data-name="Path 15234" d="M433.684,273.828a83.577,83.577,0,0,1-5.544,9.706c0,.07.059.141.117.07a67.2,67.2,0,0,0,5.6-9.717C433.907,273.781,433.731,273.723,433.684,273.828Z" transform="translate(-299.952 -240.187)" fill="#263238"/>
        <path id="Path_15235" data-name="Path 15235" d="M318.78,311.64s-.4,35.376,20.759,45.6,32.492,1.7,46.886,5.122h0c-.551-.844-10.807-15.6-27.124-19.657C342.481,338.506,323.867,326.386,318.78,311.64Z" transform="translate(-318.78 -233.668)" fill="#95d043"/>
        <path id="Path_15236" data-name="Path 15236" d="M318.78,311.64s-.4,35.376,20.759,45.6,32.492,1.7,46.886,5.122h0a79.808,79.808,0,0,0-24.041-7.1C349,353.639,323.5,344.953,318.78,311.64Z" transform="translate(-318.78 -233.668)" fill="#263238" opacity="0.1"/>
        <path id="Path_15237" data-name="Path 15237" d="M386.429,359.822a35.533,35.533,0,0,0-8.4-5.7c-.457-.223-.926-.4-1.383-.6-.223-.281-.469-.551-.715-.809-.633-.656-1.289-1.289-1.993-1.887a28.844,28.844,0,0,0-4.255-3.071c-3.517-2.063-7.338-3.516-10.925-5.415-.106-.059-.2.105-.094.152,1.77.926,3.517,1.934,5.216,2.942s3.388,1.911,5.017,2.966a36.431,36.431,0,0,1,4.185,3.141c.375.328.738.68,1.09,1.043a54.018,54.018,0,0,0-7.15-1.9c-3.868-.785-7.783-1.336-11.651-2.168a54.306,54.306,0,0,1-5.615-1.512c-1.758-1.418-3.516-2.813-5.169-4.349a43.256,43.256,0,0,1-5.474-6.06c-.07-.106-.223,0-.152.094a65.124,65.124,0,0,0,8.674,9.565q-1.372-.516-2.708-1.172A43.651,43.651,0,0,1,326.895,330.1c-.059-.094-.223,0-.152.094a49.443,49.443,0,0,0,14.582,14.066,44.766,44.766,0,0,0,9.213,4.361,86.946,86.946,0,0,0,11.452,2.708,80.032,80.032,0,0,1,11.218,2.661,34.219,34.219,0,0,1,9.377,4.947,43.968,43.968,0,0,1,12.671,15.719c4.009,8.029,5.919,17.008,7.033,25.87,0,.375.633.375.6,0C401.878,385.621,397.9,370.148,386.429,359.822Z" transform="translate(-317.412 -230.497)" fill="#263238"/>
        <path id="Path_15238" data-name="Path 15238" d="M358.145,346.824a12.143,12.143,0,0,0-4.349-3.95,15.858,15.858,0,0,1-5.169-4.278c-.07-.094-.235,0-.164.094a17.5,17.5,0,0,0,4.571,4.091,15.99,15.99,0,0,1,4.982,4.114C358.074,346.977,358.2,346.906,358.145,346.824Z" transform="translate(-313.672 -229.034)" fill="#263238"/>
        <path id="Path_15239" data-name="Path 15239" d="M366.3,377.73l.961,19.446,2.942,59.452h44.39l2.942-59.452.961-19.446Z" transform="translate(-310.598 -222.29)" fill="#2e5d32"/>
        <path id="Path_15240" data-name="Path 15240" d="M366.3,377.73l.961,19.446h50.274l.961-19.446Z" transform="translate(-310.598 -222.29)" fill="#2e5d32"/>
        <rect id="Rectangle_1240" data-name="Rectangle 1240" width="58.432" height="18.555" transform="translate(111.016 165.873) rotate(180)" fill="#1f1f1f"/>
      </g>
    </g>
  </g>
</svg>
